/* XPM */
static const char *Fro_Green1[] = {
/* columns rows colors chars-per-pixel */
"20 20 131 2 ",
"   c #0E0D0E",
".  c #140E14",
"X  c #131113",
"o  c #151315",
"O  c #151C15",
"+  c #1A181A",
"@  c gray10",
"#  c #1A1B1A",
"$  c #1B1B1B",
"%  c #191D19",
"&  c #1A1D1A",
"*  c #1B1D1B",
"=  c #1A1E1A",
"-  c #1A211A",
";  c #1B201B",
":  c #1B211B",
">  c #1A231A",
",  c #1A241A",
"<  c #1B271B",
"1  c #192A19",
"2  c #1A281A",
"3  c #1A291A",
"4  c #1B281B",
"5  c #1B2A1B",
"6  c #1B2F1B",
"7  c #1C281C",
"8  c #193119",
"9  c #1D371D",
"0  c #1C381C",
"q  c #1C3B1C",
"w  c #1D3A1D",
"e  c #1D3B1D",
"r  c #1D3C1D",
"t  c #293929",
"y  c #323132",
"u  c #323432",
"i  c #333433",
"p  c #1A421A",
"a  c #1B441B",
"s  c #1E401E",
"d  c #1E421E",
"f  c #1E461E",
"g  c #1E471E",
"h  c #1F571F",
"j  c #234623",
"k  c #254325",
"l  c #264926",
"z  c #2E4E2E",
"x  c #205320",
"c  c #205520",
"v  c #275227",
"b  c #245624",
"n  c #245724",
"m  c #245924",
"M  c #245A24",
"N  c #265A26",
"B  c #245D24",
"V  c #265F26",
"C  c #2A552A",
"Z  c #2C562C",
"A  c #2C5E2C",
"S  c #324D32",
"D  c #394139",
"F  c #305130",
"G  c #315B31",
"H  c #335D33",
"J  c #345E34",
"K  c #345F34",
"L  c #385338",
"P  c #2B632B",
"I  c #2B652B",
"U  c #2C652C",
"Y  c #2D672D",
"T  c #2E6B2E",
"R  c #316431",
"E  c #336933",
"W  c #346C34",
"Q  c #346E34",
"!  c #347134",
"~  c #397039",
"^  c #3A703A",
"/  c #397439",
"(  c #3A763A",
")  c #3B763B",
"_  c #3B773B",
"`  c #3C703C",
"'  c #3C773C",
"]  c #3B783B",
"[  c #3C783C",
"{  c #3E793E",
"}  c #3F7B3F",
"|  c #4F534F",
" . c #515F51",
".. c #595859",
"X. c #407C40",
"o. c #417C41",
"O. c #427C42",
"+. c #437E43",
"@. c #437F43",
"#. c #6D6B6D",
"$. c #747574",
"%. c #438043",
"&. c #438143",
"*. c #448044",
"=. c #458045",
"-. c #458145",
";. c #458245",
":. c #458445",
">. c #468446",
",. c #478547",
"<. c #488548",
"1. c #488848",
"2. c #498949",
"3. c #4F944F",
"4. c #519151",
"5. c #539553",
"6. c #549E54",
"7. c #658465",
"8. c #759375",
"9. c #65BF65",
"0. c #67C267",
"q. c #67C367",
"w. c #6DCD6D",
"e. c #6ED16E",
"r. c #898789",
"t. c #C8C6C8",
"y. c #CBCBCB",
"u. c gray80",
"i. c #D3D2D3",
"p. c #DBD9DB",
"a. c None",
/* pixels */
"a.a.a.a.# # # # a.a.a.a.# # # # a.a.a.a.",
"a.a.a.2 p f a 8 a.a.a.a.8 a f p 2 a.a.a.",
"a.a.X D 8.k 7. .o . . o  .7.k 8.D X a.a.",
"a.a.  ..p.#.t.r.: S S : r.t.#.p...  a.a.",
"a.: O | y.u.i.$.z 9.9.z $.i.u.y.| O : a.",
"# d c l i i y L @.2.2.@.L y i i l c d # ",
"# f T ~ K K H ` ;.@.@.;.` H K K ~ T f # ",
"# f ! <.,.,.,.;.;.;.;.;.;.,.,.,.<.! f # ",
"# q A / / %.;.;.@./ / @.;.;.%./ / A q # ",
"a.# 9 x n ' @.@./ V V / @.@.' n x 9 # a.",
"a.a.: : 7 n V Q @.} } @.Q V n 7 : : a.a.",
"a.a.a.a.a.2 2 j I U U I j 2 2 a.a.a.a.a.",
"a.a.a.a.# : 6 v U h h U v 6 : # a.a.a.a.",
"a.a.a.# , q N / } P P } / N q , # a.a.a.",
"a.= = , q N / ;.;.2.2.;.;./ N q , = = a.",
"# 2 d x N ' %.@.3.q.q.3.@.%.' N x d 2 # ",
"# 2 C ] } ;.;.6.q.w.w.q.6.;.;.} ] C 2 # ",
"# q E %.Q F R ~ 4.e.e.4.~ R F Q %.E q # ",
"# r Z G d = q 2 t 5.5.t 2 q = d G Z r # ",
"a.# # # # # # # # = = # # # # # # # # a."
};
