/* XPM */
static const char *char_1[] = {
/* columns rows colors chars-per-pixel */
"24 34 18 1 ",
"  c #07060E",
". c #323C39",
"X c #5D2C28",
"o c #422433",
"O c #20255D",
"+ c #4A5462",
"@ c #8A4836",
"# c #BB7547",
"$ c #B8724F",
"% c #A08662",
"& c #E69C69",
"* c #1B47AB",
"= c #6D758D",
"- c #1E74D4",
"; c #8B93AF",
": c #F6CA9F",
"> c #E3E6FF",
", c None",
/* pixels */
",,,,,,,,,,,,,,,,,,,,,,,,",
",,,,,,,,;;;,,,,,,,,,,,,,",
",,,,,,,;;;;;,,,,,,,,,,,,",
",,,,,;;;+;;;+;;,,,,,,,,,",
",,,,,;;;=.;;+=;;,,,,,,,,",
",,,,,++==..===;;,,,,,,,,",
",,,,,++++$$.===;,,,,,,,,",
",,,,,..++$$$.= ;,,,,,,,,",
",,,,,..&+:X::X,,,,,,,,,,",
",,,,,,.&$:X::X,,,,,,,,,,",
",,,,,,,.$::::X,,,,,,,,,,",
",,,,@@@OO:::$X,,,,,,,,,,",
",,,X@@@@OO$$XXX,,,,,,,,,",
",,X%@@@@----*XX,,,,,,,,,",
",,%%%XXX-----..,,,,,,,,,",
",%%%%  OO****...;;;;,,,,",
",%%%    *****...    ;;,,",
",X%%,,  ***** .XXoo  +,,",
",XXX,,  *****  XXoooo ;,",
",XXX,,OO*****  XX#oooo;,",
",XXX,,OO***** oo## ooo;,",
",,&&,  XXXXoo oo## ooo;,",
",,&&& @@@@Xooo oooooo+,,",
",,&&>>@@@@oooXXooooo++,,",
",,,&>>>>@  oXXX,++++,,,,",
",,,,,@>>>>, XXX,,,,,,,,,",
",,,,X@@@>>> XXXX,,,,,,,,",
",,,,X@@X,,,,XXXX,,,,,,,,",
",,,,%%%X,,,, @@X,,,,,,,,",
",,, ...,,,,, ..,,,,,,,,,",
",,, ...,,,,, ..,,,,,,,,,",
",, ...,,,,,, ..,,,,,,,,,",
",, ...,,,,,, ...,,,,,,,,",
",,,,,,,,,,,,,,,,,,,,,,,,"
};
