/* XPM */
static const char *char_mov_forward5[] = {
/* columns rows colors chars-per-pixel */
"24 34 16 1 ",
"  c #07060E",
". c #323C39",
"X c #5D2C28",
"o c #422433",
"O c #20255D",
"+ c #4A5462",
"@ c #8A4836",
"# c #B8724F",
"$ c #A08662",
"% c #E69C69",
"& c #1B47AB",
"* c #6D758D",
"= c #8B93AF",
"- c #F6CA9F",
"; c #E3E6FF",
": c None",
/* pixels */
"::::::::::::::::::::::::",
":::::::::=::::::::::::::",
":::::::::===::::::::::::",
"::::::::+====+::::::::::",
":::::::==+===+=:::::::::",
":::::::==*.==**=::::::::",
"::::::++**..***==:::::::",
"::::::++++##.**==:;:::::",
":::::**.++###**=::;;::::",
"::::::..%+-X--X:::;;::::",
":::::::.%#-X--X::;;;::::",
"::::::::.#----X::;;;::::",
":::::::::X---#:::;;:::::",
"::::::::XXX##XX==;;:::::",
":::::::X@@@&&&X ;;;=::::",
":::::::@@@@&&&X ;;;+::::",
":::::::@@$$&&&..%%..=:::",
"::::::: $$$$XXX%%%#o=:::",
"::::::: $$$$XXX%%##o=:::",
":::::::  $$$$XX%%#oo=:::",
"::::::::O&&&&& =ooo+::::",
"::::::::O@@@XX ooo++::::",
"::::::::@@@@XXX+++::::::",
"::::::::@@@@XXX:::::::::",
"::::...XX@@@XXX:::::::::",
"::::...@@@@@XX::::::::::",
":::... @@@@XXX::::::::::",
":::.. ::::XXXX::::::::::",
":::..::::::$$$::::::::::",
"::::::::::: ..::::::::::",
"::::::::::: ..::::::::::",
"::::::::::: ...:::::::::",
"::::::::::: ...:::::::::",
"::::::::::::::::::::::::"
};
