/* XPM */
static const char *char_mov_forward1[] = {
/* columns rows colors chars-per-pixel */
"24 34 17 1 ",
"  c #07060E",
". c #323C39",
"X c #5D2C28",
"o c #422433",
"O c #4A5462",
"+ c #8A4836",
"@ c #BB7547",
"# c #B8724F",
"$ c #A08662",
"% c #E69C69",
"& c #1B47AB",
"* c #6D758D",
"= c #1E74D4",
"- c #8B93AF",
"; c #F6CA9F",
": c #E3E6FF",
"> c None",
/* pixels */
">>>>>>>>>>>>>>>>>>>>>>>>",
">>>>>>>>>->>>>>>>>>>>>>>",
">>>>>>>>>--->>>>>>>>>>>>",
">>>>>>>>O----O>>>>>>>>>>",
">>>>>>>--O---O->>>>>>>>>",
">>>>>>>--*.--**->>>>>>>>",
">>>>>>OO**..***-->>>>>>>",
">>>>>>OOOO##.***->>>>>>>",
">>>>>**.OO###.* ->>>>>>>",
">>>>>>..%O;X;;X>>>>>>>>>",
">>>>>>>.%#;X;;X>>>>>>>>>",
">>>>>>>>.#;;;;X>>>>>>>>>",
">>>>>>>>>X;;;#>>>>>>>>>>",
">>>>>>>+++X##XX>---->>>>",
">>>>>>++++X==&XO::: -->>",
">>>>>$$+++X===::::o  O>>",
">>>>$$$$$===::::ooooo ->",
">>>$$$$$..::::.ooooooo->",
">>>$$XX%%..:&& o@@ ooo->",
">>>$XXX%%%.&&& X@@ ooo->",
">>>>XX.%%%&&&& XoooooO>>",
">>>>>->##&&&++ o oooOO>>",
">>>>>>>XXoo++++>OOOO>>>>",
">>>>>>>XXXo++++>>>>>>>>>",
">>>...ooXXX++++>>>>>>>>>",
">>>...+XXXX+++>>>>>>>>>>",
">>... +XXXX+++>>>>>>>>>>",
">>.. >>>ooo+++>>>>>>>>>>",
">>..>>>>>>>$$$>>>>>>>>>>",
">>>>>>>>>>> ..>>>>>>>>>>",
">>>>>>>>>>> ..>>>>>>>>>>",
">>>>>>>>>>> ...>>>>>>>>>",
">>>>>>>>>>> ...>>>>>>>>>",
">>>>>>>>>>>>>>>>>>>>>>>>"
};
