/* XPM */
static const char *char_3B[] = {
/* columns rows colors chars-per-pixel */
"24 34 18 1 ",
"  c #07060E",
". c #323C39",
"X c #5D2C28",
"o c #422433",
"O c #20255D",
"+ c #4A5462",
"@ c #8A4836",
"# c #BB7547",
"$ c #B8724F",
"% c #A08662",
"& c #E69C69",
"* c #1B47AB",
"= c #6D758D",
"- c #1E74D4",
"; c #8B93AF",
": c #F6CA9F",
"> c #E3E6FF",
", c None",
/* pixels */
",,,,,,,,,,,,,,,,,,,,,,,,",
",,,,,,,,,,,,,,,,,,,,,,,,",
",,,,,,,,,,,,,;;;,,,,,,,,",
",,,,,,,,,,,,;;;;;,,,,,,,",
",,,,,,,,,,,;;;;+;;;,,,,,",
",,,,,,,,,;;+=;.=;;,,,,,,",
",,,,,,,;;;===..==++,,,,,",
",,,,,,,.;===.$$+++++,,,,",
",,,,,,,,  =.$$$++.++,,,,",
",,,,,,,,,,X::X:+&..,,,,,",
",,,,,,,,,,X::X:$&.,,,,,,",
",,,,,,,,,,X::::$.,,,,,,,",
",,,,,,,,,,X$:::OO@@@,,,,",
",,,,,,,,,XXX$$OO@@@@XX,,",
",,,,;;;;.XX-----@@@@%%,,",
",,;;    ...*----XXX%%%%,",
",,+  oo .. OOO*OO  %%%%,",
",; ooooXX  O****   ,%%%,",
",;oooo#XX  O****  ,,%%X,",
",;ooo ##oo *****O ,,XXX,",
",;ooo ##oo oooo*OO,,&&X,",
",,+oooooo oooXXXX  &&&X,",
",,++oooooXoooXX@@@>>&&,,",
",,,,++++,XXo o@@>>>>&,,,",
",,,,,,,,,XXX  >>>>@,,,,,",
",,,,,,,,XXXX >>>@@@,,,,,",
",,,,,,,,XXXX ,,,@@@X,,,,",
",,,,,,,,XXXX,,,,X@@X,,,,",
",,,,,,,,X@@ ,,,,X%%%,,,,",
",,,,,,,,,.. ,,,,,... ,,,",
",,,,,,,,,.. ,,,,,... ,,,",
",,,,,,,,,.. ,,,,,,... ,,",
",,,,,,,,... ,,,,,,... ,,",
",,,,,,,,,,,,,,,,,,,,,,,,"
};
