/* XPM */
static const char *char_1B[] = {
/* columns rows colors chars-per-pixel */
"24 34 18 1 ",
"  c #07060E",
". c #323C39",
"X c #5D2C28",
"o c #422433",
"O c #20255D",
"+ c #4A5462",
"@ c #8A4836",
"# c #BB7547",
"$ c #B8724F",
"% c #A08662",
"& c #E69C69",
"* c #1B47AB",
"= c #6D758D",
"- c #1E74D4",
"; c #8B93AF",
": c #F6CA9F",
"> c #E3E6FF",
", c None",
/* pixels */
",,,,,,,,,,,,,,,,,,,,,,,,",
",,,,,,,,,,,,,;;;,,,,,,,,",
",,,,,,,,,,,,;;;;;,,,,,,,",
",,,,,,,,,;;+;;;+;;;,,,,,",
",,,,,,,,;;=+;;.=;;;,,,,,",
",,,,,,,,;;===..==++,,,,,",
",,,,,,,,;===.$$++++,,,,,",
",,,,,,,,; =.$$$++..,,,,,",
",,,,,,,,,,X::X:+&..,,,,,",
",,,,,,,,,,X::X:$&.,,,,,,",
",,,,,,,,,,X::::$.,,,,,,,",
",,,,,,,,,,X$:::OO@@@,,,,",
",,,,,,,,,XXX$$OO@@@@X,,,",
",,,,,,,,,XX*----@@@@%X,,",
",,,,,,,,,..-----XXX%%%,,",
",,,,;;;;...****OO  %%%%,",
",,;;    ...*****    %%%,",
",,+  ooXX. *****  ,,%%X,",
",; ooooXX  *****  ,,XXX,",
",;oooo#XX  *****OO,,XXX,",
",;ooo ##oo *****OO,,XXX,",
",;ooo ##oo ooXXXX  ,&&,,",
",,+oooooo oooX@@@@ &&&,,",
",,++oooooXXooo@@@@>>&&,,",
",,,,++++,XXXo  @>>>>&,,,",
",,,,,,,,,XXX ,>>>>@,,,,,",
",,,,,,,,XXXX >>>@@@X,,,,",
",,,,,,,,XXXX,,,,X@@X,,,,",
",,,,,,,,X@@ ,,,,X%%%,,,,",
",,,,,,,,,.. ,,,,,... ,,,",
",,,,,,,,,.. ,,,,,... ,,,",
",,,,,,,,,.. ,,,,,,... ,,",
",,,,,,,,... ,,,,,,... ,,",
",,,,,,,,,,,,,,,,,,,,,,,,"
};
