/* XPM */
static const char *CORNER_LU[] = {
/* columns rows colors chars-per-pixel */
"24 24 6 1 ",
"  c #251613",
". c #28231D",
"X c #3C2A25",
"o c #504A41",
"O c #7D7064",
"+ c white",
/* pixels */
"                        ",
"                        ",
"                        ",
"                        ",
"                        ",
"                        ",
"                        ",
"                        ",
"                        ",
"                        ",
"                        ",
"                        ",
"                        ",
"                        ",
"                        ",
"                        ",
"                    ..  ",
"                   XX.  ",
"                 ..XX  .",
"                .....ooo",
"               .....oooo",
"               .....oooX",
"                ......Xo",
"             ..    .OOOO"
};
