/* XPM */
static const char *CORNER_LD[] = {
/* columns rows colors chars-per-pixel */
"24 24 6 1 ",
"  c #251613",
". c #28231D",
"X c #7D7064",
"o c #504A41",
"O c #3C2A25",
"+ c white",
/* pixels */
"            ..    .XXXXo",
"            ..     XXXXX",
"                   XXXXX",
"                   OXXXo",
"                    oooo",
"                   OOooO",
"                  OOOOOO",
"                  OOOOOO",
"                   OOO  ",
"                ..      ",
"                ..    ..",
"                      ..",
"                       .",
"                        ",
"                        ",
"                        ",
"                        ",
"                        ",
"                        ",
"                        ",
"                        ",
"                        ",
"                        ",
"                        "
};
