/* XPM */
static const char *CORNER_RD[] = {
/* columns rows colors chars-per-pixel */
"24 24 6 1 ",
"  c #504A41",
". c #7D7064",
"X c #3C2A25",
"o c #251613",
"O c #28231D",
"+ c white",
/* pixels */
" ...XoooooOOoooooooooooo",
"....ooooooOOoooooooooooo",
"...XoXXXoooooooooooooooo",
"  XoXXXXoooooooooooooooo",
"   oXXXXoooooooooooooooo",
"   OXXXOoooooooooooooooo",
"  OOOooooooooooooooooooo",
"oOOOOooooooooooooooooooo",
"ooOOoooooooooooooooooooo",
"oooooooooooooooooooooooo",
"Oooooooooooooooooooooooo",
"Oooooooooooooooooooooooo",
"oooooooooooooooooooooooo",
"oooooooooooooooooooooooo",
"oooooooooooooooooooooooo",
"oooooooooooooooooooooooo",
"oooooooooooooooooooooooo",
"oooooooooooooooooooooooo",
"oooooooooooooooooooooooo",
"oooooooooooooooooooooooo",
"oooooooooooooooooooooooo",
"oooooooooooooooooooooooo",
"oooooooooooooooooooooooo",
"oooooooooooooooooooooooo"
};
