/* XPM */
static const char *CORNER_LU[] = {
/* columns rows colors chars-per-pixel */
"40 40 41 1 ",
"  c #251613",
". c #251714",
"X c #261915",
"o c #261C17",
"O c #2A1B17",
"+ c #271B18",
"@ c #271F1A",
"# c #291E1A",
"$ c #27201B",
"% c #28211C",
"& c #28231D",
"* c #2D201C",
"= c #2A241E",
"- c #30221E",
"; c #2B2620",
": c #302621",
"> c #372723",
", c #362A25",
"< c #352E27",
"1 c #3A2924",
"2 c #373029",
"3 c #38312B",
"4 c #3D362F",
"5 c #41322C",
"6 c #433731",
"7 c #403A32",
"8 c #463933",
"9 c #453F37",
"0 c #483D35",
"q c #49423A",
"w c #4E473F",
"e c #504A41",
"r c #544B42",
"t c #554C42",
"y c #594F45",
"u c #5C5148",
"i c #61544B",
"p c #655A50",
"a c #6A6054",
"s c #776B5F",
"d c #7D7064",
/* pixels */
"                                        ",
"                                        ",
"                                        ",
"                                        ",
"                                        ",
"                                        ",
"                                        ",
"                                        ",
"                                        ",
"                                        ",
"                                        ",
"                                        ",
"                                        ",
"                                        ",
"                                        ",
"                                        ",
"                                        ",
"                                        ",
"                                        ",
"                                        ",
"                                        ",
"                                        ",
"                                        ",
"                                        ",
"                                        ",
"                                  ...   ",
"                                 XooX.  ",
"                               .X#&&@X  ",
"                              .O->:=@X  ",
"                            XX+*>1>&oX.X",
"                           X@@$-11>*###=",
"                          Xo$&&;>>>,<<23",
"                         .o$&&&&=;<9wwww",
"                        .o@&&&&&;29weeee",
"                        X@&&&&&&;7weewwq",
"                        X$&&&&&&;7weew05",
"                        .@$&&&&&;3779986",
"                     ...XX+$&&&&=<4460wr",
"                     Xo@o.Xo+++@;9tyuipa",
"                     +&&$X    .+:usddddd"
};
