/* XPM */
static const char *CORNER_LD[] = {
/* columns rows colors chars-per-pixel */
"34 34 32 1 ",
"  c #251613",
". c #251814",
"X c #291A16",
"o c #271D19",
"O c #2E1E1A",
"+ c #27201A",
"@ c #28211C",
"# c #33211D",
"$ c #35231F",
"% c #362420",
"& c #372924",
"* c #3B2924",
"= c #3C2A25",
"- c #382D27",
"; c #3E2E28",
": c #3A332C",
"> c #3F352E",
", c #41322C",
"< c #463A33",
"1 c #493F37",
"2 c #4D3D36",
"3 c #4E473E",
"4 c #4F4940",
"5 c #504A41",
"6 c #564941",
"7 c #5F574D",
"8 c #695F55",
"9 c #6C5E54",
"0 c #6C6157",
"q c #70655A",
"w c #75685D",
"e c #7D7064",
/* pixels */
"                .@@+     o:weeee85",
"                .@@+     .-weeeew8",
"                .o+o      &weeeeee",
"                          &weeeeee",
"                          O29eeeq7",
"                          .#600075",
"                           .>45543",
"                          X%;<551,",
"                         X#*=;<<,=",
"                         #========",
"                         #========",
"                         X#*===#OO",
"                      .....#$$$X  ",
"                      o@@o        ",
"                      o@@o     o++",
"                      .oo.     +@@",
"                               o@@",
"                               .o@",
"                                .o",
"                                  ",
"                                  ",
"                                  ",
"                                  ",
"                                  ",
"                                  ",
"                                  ",
"                                  ",
"                                  ",
"                                  ",
"                                  ",
"                                  ",
"                                  ",
"                                  ",
"                                  "
};
