/* XPM */
static const char *CORNER_LU[] = {
/* columns rows colors chars-per-pixel */
"34 34 33 1 ",
"  c #251613",
". c #251714",
"X c #261A16",
"o c #261C17",
"O c #291916",
"+ c #271D19",
"@ c #2A1F1B",
"# c #28231D",
"$ c #2E211D",
"% c #2A241E",
"& c #2F2520",
"* c #2F2923",
"= c #332721",
"- c #352521",
"; c #362823",
": c #302B24",
"> c #342E27",
", c #382923",
"< c #3B2925",
"1 c #3D2B26",
"2 c #37322B",
"3 c #3D312B",
"4 c #3F3830",
"5 c #413B33",
"6 c #453932",
"7 c #473C35",
"8 c #484038",
"9 c #4C463D",
"0 c #504A41",
"q c #564840",
"w c #5D5249",
"e c #645B50",
"r c #7D7064",
/* pixels */
"                                  ",
"                                  ",
"                                  ",
"                                  ",
"                                  ",
"                                  ",
"                                  ",
"                                  ",
"                                  ",
"                                  ",
"                                  ",
"                                  ",
"                                  ",
"                                  ",
"                                  ",
"                                  ",
"                                  ",
"                                  ",
"                                  ",
"                                  ",
"                                  ",
"                                  ",
"                            Xoo.  ",
"                           X@##X  ",
"                          O-,=#X  ",
"                       .oo@<<-o.Xo",
"                      .X##%;,-$$&:",
"                      X####%%>9999",
"                     o+#####280000",
"                     +######500098",
"                     +######500071",
"                     X+#####*>>368",
"                  Xoo.X++++#499qwe",
"                  +##X    X#wrrrrr"
};
