/* XPM */
static const char *CORNER_RU[] = {
/* columns rows colors chars-per-pixel */
"34 34 34 1 ",
"  c #251613",
". c #251714",
"X c #261A16",
"o c #2A1A17",
"O c #261C18",
"+ c #281F1A",
"@ c #2E1D1A",
"# c #28231D",
"$ c #2A241D",
"% c #31231E",
"& c #30251F",
"* c #322621",
"= c #352521",
"- c #352823",
"; c #302A24",
": c #332D27",
"> c #352E27",
", c #382823",
"< c #3A2B26",
"1 c #3C2A25",
"2 c #37322B",
"3 c #40302B",
"4 c #413A32",
"5 c #473C35",
"6 c #464038",
"7 c #494139",
"8 c #4D463E",
"9 c #4F483F",
"0 c #504A41",
"q c #5B534A",
"w c #5E554B",
"e c #64554C",
"r c #695F55",
"t c #7D7064",
/* pixels */
"                                  ",
"                                  ",
"                                  ",
"                                  ",
"                                  ",
"                                  ",
"                                  ",
"                                  ",
"                                  ",
"                                  ",
"                                  ",
"                                  ",
"                                  ",
"                                  ",
"                                  ",
"                                  ",
"                                  ",
"                                  ",
"                                  ",
"                                  ",
"                                  ",
"                                  ",
"  X@@@@X                          ",
"..@,11,o                          ",
"+%,111,o                          ",
"#&-11,&+X                         ",
";;:3<*#$+o .XX.                   ",
"8888>$$-,=XO##X                   ",
"000062$,1,+###+X                  ",
"780004$*=%$####O                  ",
"150994##OX#####O                  ",
"787>:;#O..X+##O.                  ",
"0qw884&X   XOOOOO.                ",
"0rttte,o      +##.                "
};
