/* XPM */
static const char *CORNER_RD[] = {
/* columns rows colors chars-per-pixel */
"34 34 35 1 ",
"  c #251613",
". c #251714",
"X c #271815",
"o c #2A1A17",
"O c #271D18",
"+ c #2B1B18",
"@ c #2E1E1A",
"# c #27201A",
"$ c #28231D",
"% c #29241E",
"& c #2F251F",
"* c #30201C",
"= c #2F2923",
"- c #322620",
"; c #372521",
": c #332822",
"> c #352E27",
", c #392823",
"< c #3B2924",
"1 c #3C2A25",
"2 c #3D3730",
"3 c #3F3A32",
"4 c #443730",
"5 c #474038",
"6 c #4C453C",
"7 c #51423B",
"8 c #504A41",
"9 c #5B5147",
"0 c #5F5148",
"q c #5F564C",
"w c #64554C",
"e c #695F55",
"r c #716359",
"t c #74695D",
"y c #7D7064",
/* pixels */
"8eyyyw,o      #$$.                ",
"etyyy0@X      #$$.                ",
"yyyyr7 o+++X  O#O.                ",
"yyyy7;X;<<<@                      ",
"qq97,*;<111@                      ",
"8864*@11111@                      ",
"8888:@1111<@                      ",
"8888>&111,&X                      ",
"8862=&-**@OX                      ",
"553%$$$X                          ",
"o$&$$$$X                          ",
" XO$$#X.                          ",
"  XOOX                            ",
"                                  ",
"#X                                ",
"$X                                ",
"$X                                ",
"..                                ",
"                                  ",
"                                  ",
"                                  ",
"                                  ",
"                                  ",
"                                  ",
"                                  ",
"                                  ",
"                                  ",
"                                  ",
"                                  ",
"                                  ",
"                                  ",
"                                  ",
"                                  ",
"                                  "
};
