/* XPM */
static const char *CORNER_LD[] = {
/* columns rows colors chars-per-pixel */
"40 40 43 1 ",
"  c #251613",
". c #251714",
"X c #261915",
"o c #291A16",
"O c #271F1A",
"+ c #2D1E1A",
"@ c #27201B",
"# c #28221D",
"$ c #2E221E",
"% c #31201C",
"& c #34231F",
"* c #2F2620",
"= c #372621",
"- c #3B2924",
"; c #3C2A25",
": c #3D2C26",
"> c #3E2D28",
", c #3F312A",
"< c #41322C",
"1 c #42342F",
"2 c #413730",
"3 c #453831",
"4 c #473C35",
"5 c #483B34",
"6 c #493F37",
"7 c #4C3C35",
"8 c #4A4139",
"9 c #4E463E",
"0 c #504A41",
"q c #554840",
"w c #534D43",
"e c #5C554A",
"r c #635A50",
"t c #675950",
"y c #675D53",
"u c #6A5C52",
"i c #6A6056",
"p c #6F6359",
"a c #73685D",
"s c #776A5F",
"d c #7A6D62",
"f c #7C6F63",
"g c #7D7064",
/* pixels */
"                   X@#@X     X*8sggggsr0",
"                   X@#@X     X$6sggggdpr",
"                   .O@OX     .+5sggggfds",
"                   .XXXX      +5sggggggg",
"                              +1usfggfsa",
"                              o&7tsddsie",
"                              .o=qyiiye0",
"                               .+29www09",
"                              .o&,490963",
"                             Xo%-:<4841>",
"                             o%=-;:,<<>;",
"                             +=;;;;;;;;;",
"                             o&-;;;;----",
"                             X+&-;;;=%++",
"                          .XXXX+&===%o..",
"                         .XO@OXXooooo.  ",
"                         .X##OX     XXXX",
"                         .X@@OX     XO@@",
"                          XXXX.     X@##",
"                                    XO@#",
"                                    .XO#",
"                                     XXO",
"                                      .X",
"                                        ",
"                                        ",
"                                        ",
"                                        ",
"                                        ",
"                                        ",
"                                        ",
"                                        ",
"                                        ",
"                                        ",
"                                        ",
"                                        ",
"                                        ",
"                                        ",
"                                        ",
"                                        ",
"                                        "
};
