/* XPM */
static const char *FLOOR[] = {
/* columns rows colors chars-per-pixel */
"34 34 108 2 ",
"   c #251613",
".  c #251714",
"X  c #281714",
"o  c #261A16",
"O  c #2A1B17",
"+  c #2C1915",
"@  c #261C18",
"#  c #2B1D19",
"$  c #2E1D1A",
"%  c #301A16",
"&  c #341D17",
"*  c #381C18",
"=  c #3E1D1A",
"-  c #27201B",
";  c #28231D",
":  c #2D201C",
">  c #2B241E",
",  c #2D241F",
"<  c #33221E",
"1  c #35241F",
"2  c #3D211A",
"3  c #3D241C",
"4  c #2F2520",
"5  c #312620",
"6  c #362621",
"7  c #392722",
"8  c #362823",
"9  c #392823",
"0  c #3B2A25",
"q  c #3C2A25",
"w  c #451F1C",
"e  c #42231C",
"r  c #49201D",
"t  c #4D211E",
"y  c #4C281E",
"u  c #512220",
"i  c #542320",
"p  c #5D2623",
"a  c #5A2A22",
"s  c #5E2B23",
"d  c #5F2D23",
"f  c #622B24",
"g  c #652825",
"h  c #612C24",
"j  c #692B26",
"k  c #6B2C27",
"l  c #6D2E27",
"z  c #6F2F28",
"x  c #613224",
"c  c #683226",
"v  c #713128",
"b  c #763429",
"n  c #78362A",
"m  c #7B382B",
"M  c #7B3E2B",
"N  c #7D402C",
"B  c #803B2C",
"V  c #833D2D",
"C  c #80402C",
"Z  c #86402E",
"A  c #8A422F",
"S  c #8C4330",
"D  c #8F4630",
"F  c #884A34",
"G  c #914731",
"H  c #934931",
"J  c #954A32",
"K  c #994F35",
"L  c #935A3C",
"P  c #975F3E",
"I  c #9C5A3A",
"U  c #9E5D3C",
"Y  c #A05B3A",
"T  c #9D643F",
"R  c #A3603D",
"E  c #A7653F",
"W  c #A9613D",
"Q  c #A86841",
"!  c #AE6840",
"~  c #A96C43",
"^  c #B16B41",
"/  c #B16E43",
"(  c #B37144",
")  c #B47446",
"_  c #B87647",
"`  c #C07B48",
"'  c #C5814B",
"]  c #CB894F",
"[  c #CE8C50",
"{  c #D39253",
"}  c #D59454",
"|  c #D79856",
" . c #D99A57",
".. c #DB9D58",
"X. c #DFA35B",
"o. c #E2A75E",
"O. c #E4AB5F",
"+. c #E5AD60",
"@. c #E9B162",
"#. c #EBB463",
"$. c #EDB865",
"%. c #F0BC67",
"&. c #F3C069",
"*. c #F5C46B",
"=. c #F7C66C",
"-. c #FACB6E",
";. c #FCCD6F",
":. c #FED171",
/* pixels */
":.:.:.:.:.$.} *.@...-.:.:.:.:.:.=. .#.&.{ %.:.:.:.:.:.:.:.:.:.X.+.:.",
":.:.:.:.:.=.$.-.*.$.;.:.:.:.:.&.o.} #.-.#.-.:.:.:.:.:.:.$.$.:.%.&.:.",
":.:.;.&.&.&.&.&.-.;.&.-.:.:.*.O.{ { O.*.:.=.=.:.:.:.;.&.X.X.&.;.:.:.",
":.:.&.} { { { { @.*.| $.:.:.X.{ { { { X.:.o.O.:.:.:.*.| { { } &.:.:.",
"P ~ ( W ' { [ ^ ^ ( W / _ _ ] { ] ! ` ] _ ! ! ) T P L F F F F L P P ",
"g b V V I Q E K S Z H A V Z U Q E K Y R J J D B k g j b l k n j l n ",
"j g g j g f g Z m l S b g j g g l A n v D G B g j g z G n n H l n J ",
"S b z A v u * f k g l j v A z g g l j j z z k j V n z G D D G y d J ",
"J c a H d * X = i p r w d H a s n j g p w w u g d h f d C Z d & 2 d ",
"N y 2 M e       = t X   e N 3 y M j p r     * i % = t X d x         ",
"% X X % X       X X     O 5 > $ * p w X     X X   X X   + +         ",
"            . @ : < < O o ; ; @ X * %       o @ @ o           @ @ @ ",
"o o o o . . o ; 5 q q : @ @ @ o       . o o @ ; ; @ o     . o ; ; ; ",
"; ; ; ; o o ; ; 5 0 0 4 @ . .         o ; ; ; ; ; ; - .   o ; ; ; ; ",
"; ; ; ; o o ; ; > , , > , 6 6 $     o - ; ; ; ; o o o     o ; 5 8 8 ",
"; ; ; ; : : 5 5 , ; @ , 5 q q 6 $ . $ 5 5 > ; ; @ o . o @ @ @ 8 q q ",
"; ; ; > 8 q q q 5 @ . < q q q q 7 O < q q 4 ; ; ; @ O > ; @ o < 9 9 ",
"; ; , 9 0 q q q < .   < q q q q 7 O < q q 4 ; ; o : 7 9 4 ; ; O # > ",
"@ @ : 0 q q q q :     < q q q 8 4 @ $ : 5 > - @ : 6 q q 8 5 ; o o @ ",
"    O 1 9 q 0 6 $     : 6 8 8 5 ; ; @ o @ - @ X 6 q q q q 6 @ o     ",
"      . 1 q 9 O         o ; ; ; ; ; ; @ .     X 6 q q q q 1         ",
"        O # # @ @ @ .   o ; ; ; ; ; ; -       . : 8 q q < O         ",
"            . - ; - .   o @ @ - ; ; - @       . @ : < < O           ",
"            . @ ; @ .         o ; ; o                               ",
"              o o o           . o o .                               ",
"                                                                    ",
"                                                                    ",
"                                                                    ",
"                                                                    ",
"                                                                    ",
"                                                                    ",
"                                                                    ",
"                                                                    ",
"                                                                    "
};
