/* XPM */
static const char *LEFT_PLATFORM[] = {
/* columns rows colors chars-per-pixel */
"24 24 8 1 ",
"  c #251613",
". c #28231D",
"X c #3C2A25",
"o c #504A41",
"O c #7D7064",
"+ c #9E8A8C",
"@ c #D3BABA",
"# c None",
/* pixels */
"######@@@@+++++@@@@@@++#",
"#++++@@@@@@+OO@@@@@@@@+#",
"+++++@@@@@@@OO@@@@@@@@O#",
"++++OoOOOOOooooOOOOOooo#",
"ooXXoooOOOoooOOOooOOOOo#",
"ooXXXooX  .XXOOOoOOOOOX#",
"OOOOXXXoo.XXXXXXXOOOOXX#",
"OOOoOXXoo.XXXXoooXX    #",
"OOoOO...   ..ooooo   ..#",
"OXOOX.ooX  XX....   XX.#",
"oXXXXoooo.XXXX....  XX.#",
"ooXXooooo.XXXX....   ..#",
"ooXXoooo...XX          #",
"OOXX.ooX ..    ..      #",
"OOXX..XX       ..      #",
"OOXXoo..XXX            #",
"ooXoooo.XXXX     XXX ..#",
"ooXooooo.XXXX  XXXXX...#",
"OOoXoooX..XX...XXXXX...#",
"OOOOXX..XXX.....XXX....#",
"OOOOOX.XXXXX....   ...X#",
"oOOOOoXXoooXXXXooooXXXX#",
"# OOooOOOOOoooOOOOOOoOO#",
"## ooOOOOOOOoOOOOOOooOO#"
};
