/* XPM */
static const char *PLATFORM[] = {
/* columns rows colors chars-per-pixel */
"40 40 153 2 ",
"   c #251613",
".  c #291714",
"X  c #261A16",
"o  c #2A1916",
"O  c #261E19",
"+  c #2D1D19",
"@  c #331916",
"#  c #351C19",
"$  c #3C1C19",
"%  c #26211C",
"&  c #2A231D",
"*  c #32231E",
"=  c #3F211A",
"-  c #2D2620",
";  c #2E2822",
":  c #332621",
">  c #392722",
",  c #332B24",
"<  c #3C2A25",
"1  c #352E28",
"2  c #3C2E28",
"3  c #36312A",
"4  c #3C332C",
"5  c #3F3730",
"6  c #3F3931",
"7  c #421E1B",
"8  c #4A1F1C",
"9  c #4C211E",
"0  c #52221F",
"q  c #452622",
"w  c #4D2622",
"e  c #472E23",
"r  c #402F2A",
"t  c #552321",
"y  c #5C2623",
"u  c #522E21",
"i  c #42332D",
"p  c #5E3427",
"a  c #51342F",
"s  c #443730",
"d  c #453C34",
"f  c #493D36",
"g  c #4B3F38",
"h  c #622624",
"j  c #662825",
"k  c #6A2B26",
"l  c #6E2F28",
"z  c #702F28",
"x  c #663125",
"c  c #6D3227",
"v  c #6F3229",
"b  c #6E3C2A",
"n  c #733229",
"m  c #79352A",
"M  c #763A29",
"N  c #7D3A2C",
"B  c #653833",
"V  c #474139",
"C  c #4B443B",
"Z  c #4E483F",
"A  c #53443C",
"S  c #4F4940",
"D  c #514B42",
"F  c #5B4D44",
"G  c #575047",
"H  c #5F5047",
"J  c #5C534A",
"K  c #63564D",
"L  c #63594F",
"P  c #645C51",
"I  c #6A5D53",
"U  c #6D6156",
"Y  c #6F6459",
"T  c #746056",
"R  c #73655A",
"E  c #75695E",
"W  c #786B5F",
"Q  c #7A6D62",
"!  c #7D7064",
"~  c #843E2D",
"^  c #87402E",
"/  c #8B422F",
"(  c #874531",
")  c #8E4630",
"_  c #8B4933",
"`  c #904530",
"'  c #964D33",
"]  c #984E34",
"[  c #9A5135",
"{  c #97573A",
"}  c #985739",
"|  c #995A3B",
" . c #A75F3C",
".. c #AA623D",
"X. c #AE6A41",
"o. c #B36E43",
"O. c #B67144",
"+. c #B97244",
"@. c #BE7847",
"#. c #BD7D4A",
"$. c #807367",
"%. c #827568",
"&. c #C17C49",
"*. c #BE8A51",
"=. c #C4814B",
"-. c #CC8A4F",
";. c #CF8C50",
":. c #D18F51",
">. c #C79154",
",. c #CE9354",
"<. c #D49353",
"1. c #D39856",
"2. c #D99A57",
"3. c #D49B58",
"4. c #D69E59",
"5. c #DA9C58",
"6. c #DC9F59",
"7. c #DDA05A",
"8. c #DEA25B",
"9. c #E2A75D",
"0. c #E5AC5F",
"q. c #E2AD60",
"w. c #E6AD60",
"e. c #E9B262",
"r. c #EBB463",
"t. c #EBB564",
"y. c #ECB664",
"u. c #EFBB67",
"i. c #EEB965",
"p. c #EFBE68",
"a. c #F1BD68",
"s. c #F1BE68",
"d. c #F1C169",
"f. c #F3C069",
"g. c #F6C46B",
"h. c #F7C66C",
"j. c #F7C76C",
"k. c #F8C86D",
"l. c #F9C96D",
"z. c #FBCB6E",
"x. c #FCCE70",
"c. c #FDCF70",
"v. c #FDD071",
"b. c #FDD070",
"n. c #FED171",
"m. c #FED071",
"M. c #FED271",
"N. c #FFD271",
"B. c #FFD272",
"V. c #FFD372",
"C. c #FFD472",
"Z. c #FFD473",
"A. c #FFD573",
/* pixels */
"n.n.n.n.n.n.n.n.n.n.n.n.n.n.A.c.0.<.:.6.g.A.n.n.A.n.n.A.j.8.8.j.A.n.n.n.n.n.n.n.",
"A.A.A.z.f.a.a.a.a.a.g.n.A.n.z.i.8.<.:.2.r.z.n.f.q.p.n.z.y.5.5.t.a.a.z.n.A.A.A.A.",
"n.n.n.i.5.2.2.2.2.2.9.j.A.c.y.2.<.<.:.<.2.w.z.4.X.1.z.e.2.<.<.2.1.2.e.c.n.n.n.n.",
"*.*.*.#.+.=.<.<.;.@.@.,.3.1.2.<.<.:.&.+.O.=.,.+.] O.,.=.+.O.&.;.<.<.2.1.>.*.*.*.",
"n v n N ] o.-.:.=. .] [ [ [ o.-.:.=...] ' ] [ ] ' ] [ [ ' '  .=.:.-.O.[ ~ n v n ",
"h h h k m _ | | } ] / N n n ( { | } ] ) ~ m m m N ^ ` ~ N / ] } | { _ m k h h h ",
"y h j j j j j j v ^ ~ l j k k k j l ~ ^ n j j j k N ^ n l ~ ^ v j j j j j j h y ",
"$ 9 h j h h h h j n n k z N n h h h n n k h j h j l n k j n n k h h h h j h 9 $ ",
"  @ 0 h h y y h j y y y n ) N y j l k j j h y y j j j j h y y y y y h j h t @   ",
"    @ 8 y 9 $ t y q * * p ) c 7 x ~ n h j t $ 9 h k j k y 7 @ # @ # 9 h 9 @ .   ",
"2 2 2 a B q . 7 w * % % e b u + u M c h y 7 . # 0 t t t 9 @         $ 9 @   X o ",
"U U U R T f X + * & % % & > * % + = y y $ o   . o @ @ @ o .         . o .   * > ",
"$.$.$.%.! K s , - - & & % % % % X   7 7 o   X X X X X           + : 2 i s s A A ",
"! ! ! ! ! Q U C < > , & & & & & O   . .   X % & & & & X         : C K R E E E E ",
"! ! ! ! ! %.Q A < > 2 4 4 4 4 4 &       X O % % & , 4 4 2 2 , * i L E ! %.$.$.! ",
"! ! ! ! ! ! R A < < i C S Z D C 2 o   X % & % & - 6 C S Z S f 4 A E ! ! ! ! ! ! ",
"! ! ! $.! I A i 2 s C D D D D D f 4 + X % & & , 6 C D D D D C g J Q %.! ! ! ! ! ",
"E E E W R A 2 < i C D D D D D D D C :   O % & 4 C D D S D D S D J R Q ! ! ! ! ! ",
"J J J F A i < s C Z D D D D S D D C :   X O & 4 S D D S D D D D A A K ! $.! ! ! ",
"S D S f < > 2 f D D D D D D D S C s &     X & 3 V C D D D D D C s 2 A I R R R R ",
"S D S f < > 2 f D D D D D D D Z 4 & X X O % & - , d D D D D C i 2 < i f D J J J ",
"D D D f 2 > 2 s C S D D D D C d :     X % & & % & 3 d f f f 5 , : > > < s Z S Z ",
"D D D f 2 < < 2 i C D D D S s ; O     X % & & & & & ; ; ; ; - & : < < 2 f D D D ",
"S S S d < > < < 2 4 6 6 s f 4 : & + X   O % & & & % % O O % , f A A A F J P P P ",
"D D D f r < < < > - & - , 2 < < < > +     X % & & & & X o : g U Q Q Q Q Q Q Q Q ",
"I I I L H A s : + X & 3 4 < < < < < : + X   X O O O X   + g I Q $.! ! ! ! ! ! ! ",
"Q Q Q Q E I D 4 +   * C C i < < < < < : o               : K ! ! ! ! ! ! ! ! ! ! ",
"! ! ! R P I U L A * * C D g i < < < 2 > o               : I %.! ! ! ! ! ! ! ! ! ",
"! Q E I J U ! %.U 2 & s Z S f i 2 < > * o               * F E Q ! ! ! ! ! ! ! ! ",
"$.E L P Y Q ! %.Y 4 % , 6 S D C i < * o                 o i F E $.! ! ! ! ! ! ! ",
"I K D L Q $.! $.Y 6 % % , d V f 4 * o             + * * : 2 f K U R Q ! ! ! ! ! ",
"s f C P Q ! ! $.Y 6 % % & ; , ; & o               2 C C C C C s g F U Q ! ! ! ! ",
"> 2 d F U Y U I F 4 % % % % % % O X             X 4 D D D D C s i f D K I U U U ",
"< < 2 d D G D f 2 - % & & & & & & % X           X 4 Z D D D D C f i 2 i C F F F ",
"< > > i C D C 4 & & & : : : & & & & X             : s J P F S D f 2 > < d S S S ",
"2 2 2 s Z D C 3 & & & > < < : & & % X             X , J R J D D f 2 > 2 f D D D ",
"f f f C D D C 3 & - , < < < < : & X                 + s F I I G f 2 > 2 f D D D ",
"D D D Z C C C 1 & : < < < < < < +     X X           X # i K I D s 2 > 2 f D D D ",
"D D D C i i 4 & + : < < < < < < +   O O O O           o & 4 6 3 1 < < 2 f D D D ",
"D D D f < < > + o : < < < < < < + X O & & O X           X O % % & < < 2 f D D D "
};
