/* XPM */
static const char *PLATFORM[] = {
/* columns rows colors chars-per-pixel */
"34 34 106 2 ",
"   c #251613",
".  c #261714",
"X  c #261B17",
"o  c #281916",
"O  c #271D19",
"+  c #2B1C18",
"@  c #2E1E1A",
"#  c #27201B",
"$  c #28231D",
"%  c #2D231D",
"&  c #2A241E",
"*  c #2D251F",
"=  c #33231E",
"-  c #35231F",
";  c #30241F",
":  c #2F2520",
">  c #302620",
",  c #362521",
"<  c #382722",
"1  c #352822",
"2  c #372B25",
"3  c #342E27",
"4  c #382823",
"5  c #3B2924",
"6  c #3C2A25",
"7  c #3E2C27",
"8  c #352F28",
"9  c #3D2F29",
"0  c #353029",
"q  c #39312A",
"w  c #3D332C",
"e  c #402F29",
"r  c #40312B",
"t  c #42342E",
"y  c #47362F",
"u  c #433730",
"i  c #423932",
"p  c #463A33",
"a  c #483831",
"s  c #493F37",
"d  c #4E3E37",
"f  c #4B4038",
"g  c #4E473E",
"h  c #50463D",
"j  c #54463E",
"k  c #4F4840",
"l  c #514B42",
"z  c #564941",
"x  c #534C43",
"c  c #574C43",
"v  c #544D44",
"b  c #5A4A42",
"n  c #5A4F46",
"m  c #5F4F46",
"M  c #575047",
"N  c #595248",
"B  c #5F564D",
"V  c #605248",
"C  c #62544A",
"Z  c #65564D",
"A  c #61594E",
"S  c #66584F",
"D  c #675651",
"F  c #665C53",
"G  c #695C52",
"H  c #6C5D53",
"J  c #685E54",
"K  c #695F59",
"L  c #6C6157",
"P  c #6E635B",
"I  c #6F6459",
"U  c #706157",
"Y  c #70655A",
"T  c #776A5F",
"R  c #736762",
"E  c #7B6F63",
"W  c #7A6E68",
"Q  c #7D7064",
"!  c #83706B",
"~  c #82756E",
"^  c #86786D",
"/  c #847770",
"(  c #8C7C76",
")  c #907F7D",
"_  c #8F8078",
"`  c #97877F",
"'  c #998880",
"]  c #9E8A8C",
"[  c #A08B8D",
"{  c #A3918C",
"}  c #A4918E",
"|  c #A8958F",
" . c #A99495",
".. c #AE999A",
"X. c #B09A9C",
"o. c #B39E9C",
"O. c #B6A0A1",
"+. c #B8A2A1",
"@. c #BCA5A6",
"#. c #BFA8A8",
"$. c #C0A9AA",
"%. c #C4ADAC",
"&. c #C7AFB0",
"*. c #C9B1B1",
"=. c #CEB6B6",
"-. c #D3BABA",
/* pixels */
"] @.-.-.-.-.=. .] ] ] #.-.-.-.-.-.-.-.-.-.X.] ] ] +.-.-.-.-.-.-.@.] ",
"@.*.-.-.-.-.-.$.} ( ( +.-.-.-.-.-.-.-.-.-.%.X.[ O.&.-.-.-.-.-.-.o.( ",
"-.-.-.-.-.-.-.-.| Q Q { %.-.-.=.%.%.=.-.-.-.O.) %.-.-.-.-.-.-.*.} Q ",
"-.-.-.-.-.-.-.-.| Q Q Q ' -.-.@.[ [ @.-.-.-.{ B +.-.-.-.-.-.-...) Q ",
"W ( ' ' ' ' ` ~ P B B Y ^ ` ~ R K K / ' ' / K x D ! ' ' ' _ W P F B ",
"l B L L T Q E J A N f G Q E J A B x B L L N l k p j S L T T A A N l ",
"g k l v Y Q Q Q Q U r V E Q Q Q T N l k l x v v l p r l P Q Q Q J g ",
"r s N T E Q Q Q Q U r t b Q Q Q E T z u k J T Y M p y I E Q Q Q C r ",
"6 t z E Q Q Q Q Y V e 6 y m T Q Q Q b e p J Q E h r a T Q Q E Z d 6 ",
"6 6 a G L U U U B g t r e 7 C L H H d < 6 m L S r 4 y H L H G y , , ",
"6 6 < @ 5 r r r s k g g s 6 e 4 @ @ o @ 5 e 5 @ o = 6 r , @ @ o X X ",
"> = @ = 4 6 5 = t l l l g s , o X = = - 6 6 9 t t p u = o     O O O ",
"$ O @ 5 6 6 5 @ 2 i i i i i @ X + 4 6 6 6 6 y l l g u o       O $ $ ",
"$ $ * 5 6 6 6 6 =             O & 5 6 6 6 6 y k k p , X       O $ $ ",
"$ $ $ + , 6 5 > $ O O X     O $ $ * 1 6 6 6 4 ; ; @ + O O O   O $ $ ",
"$ # X   @ = > & $ $ $ X o @ ; * $ $ % = = = @       X $ $ # X O # $ ",
"$ O X X . X $ & & & $ X @ 6 6 , & $ X . o o X       X # $ $ $ X X $ ",
"X O $ $ X X & 1 5 1 & X @ 6 6 5 1 & X o < < =         X O $ $ X . X ",
"O # $ $ O O O , 6 , O X o @ < 6 5 & % - 6 6 < = X       X X X       ",
"$ $ $ $ # O . = , = .       = , , & > 6 6 6 6 4 o X X X .           ",
"$ $ $ $ X       .             O $ $ > 6 6 6 6 4 o O $ $ X           ",
"X X X X .                   O # $ $ * > 6 6 , + . O $ $ # O         ",
"    X @ @ @ @ X   X @ @ o   O $ $ $ $ & , - @     X O $ $ O         ",
"  . @ 5 6 6 4 + . o 4 6 -   O $ $ $ $ $ & O X X . . X # $ O       . ",
"  @ < 6 6 6 6 < @ o 4 6 -   X O $ $ O + 1 , , , $ X . X X X     X # ",
"O = 6 6 6 6 6 6 = O > = @     X O O @ = 6 6 6 5 , = @ .       X O $ ",
"* 1 5 5 5 6 6 5 > $ $ + o o o o X X = 6 6 6 6 6 6 6 , o X X o $ * * ",
"5 5 1 & 1 6 5 * $ $ $ > 4 4 4 > $ $ > 6 6 6 6 6 6 6 4 $ $ * 4 5 5 5 ",
"6 6 1 $ * > : & $ & > 5 6 6 6 5 > & * > 6 6 6 6 6 1 * $ > 1 6 6 6 6 ",
"6 6 5 : : : : 3 0 q t t t t 7 6 5 8 0 q t t r 6 6 1 > 8 w t t t r 6 ",
"7 7 7 7 6 6 e g l l l l l l t 6 r g l l l l s 6 6 6 t l l l l l s 7 ",
"H H H H z c H I Y Y Y Y Y Y z n L Y Y Y Y Y A f f n L Y Y Y Y Y U H ",
"Q Q E J M A Q Q Q Q Q Q T J M N L E Q Q Q Q T A v N P E Q Q Q Q Q Q ",
"Q Q Y l l A Q Q Q Q Q Q I l l l M T Q Q Q Q Q E N l N E Q Q Q Q Q Q "
};
