/* XPM */
static const char *PLATFORM[] = {
/* columns rows colors chars-per-pixel */
"40 40 121 2 ",
"   c #251613",
".  c #261A16",
"X  c #2A1916",
"o  c #271D19",
"O  c #2E1E1A",
"+  c #311916",
"@  c #3A1C19",
"#  c #27211B",
"$  c #29231D",
"%  c #32221E",
"&  c #3A241D",
"*  c #2E2520",
"=  c #2D2821",
"-  c #332621",
";  c #392722",
":  c #342A24",
">  c #3C2A25",
",  c #352F28",
"<  c #3E2E29",
"1  c #373029",
"2  c #3A332C",
"3  c #3E3931",
"4  c #431F1B",
"5  c #4D221E",
"6  c #432521",
"7  c #422C22",
"8  c #562421",
"9  c #5C2623",
"0  c #572B27",
"q  c #592F25",
"w  c #42322D",
"e  c #5D3123",
"r  c #443730",
"t  c #483730",
"y  c #443B33",
"u  c #4A3C35",
"i  c #622724",
"p  c #652825",
"a  c #6B2C27",
"s  c #603224",
"d  c #723627",
"f  c #723229",
"g  c #7A372B",
"h  c #75382B",
"j  c #7A3B2D",
"k  c #4C443C",
"l  c #4F483F",
"z  c #52433B",
"x  c #79402D",
"c  c #4F4940",
"v  c #514B41",
"b  c #5B4B43",
"n  c #5B5047",
"m  c #5D544A",
"M  c #624942",
"N  c #62554C",
"B  c #65594F",
"V  c #6F584E",
"C  c #655B50",
"Z  c #6A5D53",
"A  c #6D6157",
"S  c #6F6459",
"D  c #71645A",
"F  c #76695E",
"G  c #7B6E62",
"H  c #7D7064",
"J  c #813C2C",
"K  c #84412E",
"L  c #8A422F",
"P  c #8C4531",
"I  c #914731",
"U  c #954B32",
"Y  c #965236",
"T  c #9B5135",
"R  c #9E5839",
"E  c #A45E3B",
"W  c #98613F",
"Q  c #A4603D",
"!  c #AA633E",
"~  c #AD6C42",
"^  c #B36D42",
"/  c #B47044",
"(  c #B87747",
")  c #BC7C49",
"_  c #C27E4A",
"`  c #C3814C",
"'  c #CC894F",
"]  c #CE8C50",
"[  c #D08D50",
"{  c #CD9153",
"}  c #D29152",
"|  c #D89956",
" . c #DB9E59",
".. c #DEA35B",
"X. c #DEA85E",
"o. c #E1A55C",
"O. c #E4AA5F",
"+. c #E7B061",
"@. c #E9B162",
"#. c #E9B363",
"$. c #EAB463",
"%. c #EBB664",
"&. c #EBBB67",
"*. c #EDB865",
"=. c #EFBB66",
"-. c #F0BE68",
";. c #F2C26A",
":. c #F4C46B",
">. c #F7C66C",
",. c #F8C96D",
"<. c #FACB6E",
"1. c #FACC6E",
"2. c #FBCD6F",
"3. c #FCCE70",
"4. c #FDCF70",
"5. c #FDD170",
"6. c #FDD071",
"7. c #FDD171",
"8. c #FED171",
"9. c None",
"0. c black",
/* pixels */
"9.9.9.5.<.o. .>.=.} @.5.5.5.5.5.5.5.<.....<.5.5.5.>...o.<.@.} =.>. .o.<.5.5.9.9.",
"9.9.9.5.1.%.@.<.;.O.-.5.5.5.5.5.5.:.$. ...<.5.5.5.<.@.%.1.@.} =.<.@.%.1.5.5.5.9.",
"9.9.5.5.5.3.3.3.3.1.3.5.5.5.5.5.5.+.} } ..<.5.5.5.3.3.3.5.@.} =.3.3.3.5.5.5.5.5.",
"U { 1.5.3.=.+.+.+.+.+.$.>.5.5.:.+. .} } | O.-.3.X.} -.>.$...} ..+.+.=.3.5.5.5.5.",
"U ( &.;.-. .] } } } [ } @.:.:.+.} } } ] ' ' ..:.) E ..@.} ' ' [ } } ..;.:.;.;.;.",
"U Y W W W Q ^ ' } } ( ! / ( ( ` } } ' / ! ! ~ ( E T ~ / ! ! ! _ } } ' ) ~ W W W ",
"U J p p p j U ~ ( ( Q U P L L R ( ( / R I L L L L L I I L P U ! ( ( ! P g p p p ",
"U J p p p a f h j j P I g a a f j j j P L f a a a f L L f J U K j j h a p p p p ",
"U d 5 9 p p p p p p f J a p f f p p p g g p p p p p g g p f J f p p p p p i 8 5 ",
"9.9.  4 p p p p p p p p p f L J p p p p p p p p p p p p p p p p p p p p p i @   ",
"9.9.  + 4 9 9 5 5 i 8 6 6 q P h 4 p j a p p 8 4 8 p p p p 8 4 4 4 4 5 i 8 4 +   ",
"9.9.$ O % 0 0 + @ 9 6 $ $ 7 x s   e K f i 9 4   4 9 9 9 9 4         @ 9 4     X ",
"9.9.N N N V M % O & % $ $ % 7 ; # & 5 9 8 4 +   + @ @ @ @ +         X @ +   O % ",
"9.G H H H H A u : * $ $ $ $ $ $ $ . X 4 4 X   . . . . .         . O ; < < < t u ",
"H G H H H H G D b > - $ $ $ $ $ $ .   X X   . # # # # o         O y b Z A A D D ",
"H H H H H H H H N < ; - $ $ $ $ $ .       . # $ $ $ , 1 , , : % ; b A G H H H H ",
"H H H H H H H H N < > ; * $ $ $ $ .     . $ $ $ $ - y c c c l r t Z H H H H H H ",
"C A G H H H F n z y y y : $ $ $ $ # . . . $ $ $ 1 y k c c c v k z S H H H H H H ",
"v m F F F F B w r c v l , $ $ $ $ $ $ . . # $ $ y v v v v v v v b A F G H H H H ",
"v b m m m z u < r c v l , $ $ $ $ $ $ .   . o $ y v v v v v v v l z b G H H H H ",
"v v v v l w ; > w k k y - # $ $ $ # o .     . # 1 y l v v v v k y < z F H G F D ",
"9.9.9.c l w ; > < < : * o . $ $ $ o             X % y v v v c 2 - ; z F H G C b ",
"9.9.9.A N u > > ; ; $ $ $ % - $ o .         X O O % 1 3 3 3 3 : $ ; t b N Z n v ",
"9.9.H H F z > > ; $ $ $ ; > > %             O > > ; $ $ $ $ $ $ $ ; > > y v v v ",
"H H H H F z > > ; $ $ $ ; > > %         X % ; > > > ; - $ y n n n N z < y v v v ",
"H H H H F z > > ; - = - ; ; ; % X X X   O ; > > > > > < , b H H H H C w y v v v ",
"H H H H F z > > w y y y , * $ % ; ; % X O ; > > > > > u N D H H H H A l l v v v ",
"S S S S Z u < w u c v l 3 : $ * > > ; % % ; > > > > > z F H H H H H Z l l v v v ",
"b b b b v r w k l v v v l y = - > > > ; ; > > > > > > z F H H H H G B w y v v v ",
"v v v v l w w l v c v v v l 3 , - ; > > < r y y y r < t b Z H H F N z < w y l v ",
"9.9.v v c r w l c v v v v v c 3 $ - > > w l v v v l w > > b G G A u < < < < k v ",
"H F A A Z v y r u c v v v l y , $ $ - y k l v v v l w > > t z z b N N N b k m A ",
"H H H H G C v u u l l l k y < - $ $ - y v v v v v l w > > > > w z D H H A n D H ",
"H H H H G F D A b w w w , - * - ; ; < k v v v v v l w ; > > < b D G H H G F G H ",
"H H H H H H H H Z z w ; * $ * ; > > < y k l v v k y , ; > < r B H H H H H H H H ",
"H H H H H H H H G F b ; * $ ; > > > > < w l v v 2 $ $ - ; r c A H H H H H H H H ",
"G D Z F H H H H H H N r , ; ; w y y y y y y y 3 : $ - ; > z Z F H H H H H H H H ",
"9.9.c C G G H H G G C l r < < u v v v v k w : = = - < < > b H H H H H H H H G F ",
"9.9.9.y u Z H H D B b v N N N C A A A A B k z m m m N b < b H H H H H H H G b r ",
"9.9.9.  O N H H A v v b S H H H H H H H D b C H H H H C w b H H H H H H H F r   "
};
