/* XPM */
static const char *RIGHT_PLATFORM[] = {
/* columns rows colors chars-per-pixel */
"24 24 8 1 ",
"  c #251613",
". c #28231D",
"X c #3C2A25",
"o c #504A41",
"O c #7D7064",
"+ c #9E8A8C",
"@ c #D3BABA",
"# c None",
/* pixels */
"#+@@@@+++@@@@@@@@@@#####",
"#@@@@@@OO@@@@@@@@@@++++#",
"#@@@@@@OOO@@++@@@@++++++",
"#oOOOOoooOOoooOOooO+++++",
"#oooOOOOXOOOOooooooXXXoo",
"#XoOOOOOXXOOOOXoOOooXXoo",
"#XXOOOOoXXXOOOXXOOooXXo#",
"#XX XXXoooXX   XXoooXOOO",
"#  XXX oooo  XXXX XXoOOO",
"#..XXXX     .XXXX .OOoOO",
"#.. XX...  ...XX...OOOoO",
"#.   .... XX... ...oOOOo",
"#     ..  XX     ...XOOo",
"#        ..   XX....XXoo",
"#     XX.... XXXX.OOOooo",
"#     XXX...XXXXXOOOOooo",
"#..    XX.. XXXXXOOOOXoo",
"#...    ...  oooXXOOXXXo",
"#....   XXXXooooXXXXOOoO",
"#....  XXXXoooooXXXOOOOO",
"#XX.  .XXXXoooo..XoOOOOO",
"#XXXXX..XXXXXX..XXOOOOOO",
"#OOOooOOOOOOooOOOXOOOOO ",
"#OOooOOOOOOOOoOOOooOOO #"
};
