/* XPM */
static const char *WALL_LEFT[] = {
/* columns rows colors chars-per-pixel */
"34 34 121 2 ",
"   c #251613",
".  c #251714",
"X  c #261714",
"o  c #271814",
"O  c #261915",
"+  c #261A16",
"@  c #261B17",
"#  c #281916",
"$  c #291B17",
"%  c #2A1B17",
"&  c #271C18",
"*  c #281D19",
"=  c #2D1D19",
"-  c #2E1E1A",
";  c #2F1F1B",
":  c #27201A",
">  c #28211C",
",  c #2A211C",
"<  c #28221C",
"1  c #28231D",
"2  c #2E221D",
"3  c #2A241E",
"4  c #2D251F",
"5  c #30201C",
"6  c #31231E",
"7  c #33221E",
"8  c #33241F",
"9  c #2F2822",
"0  c #322420",
"q  c #312620",
"w  c #322721",
"e  c #352420",
"r  c #362520",
"t  c #352721",
"y  c #372621",
"u  c #392722",
"i  c #312B24",
"p  c #362924",
"a  c #342B25",
"s  c #332D26",
"d  c #392923",
"f  c #3B2A25",
"g  c #3C2A25",
"h  c #3D2B26",
"j  c #3B2D27",
"k  c #3D2C27",
"l  c #3E2D27",
"z  c #3F2F29",
"x  c #3A302A",
"c  c #3B332C",
"v  c #3D322C",
"b  c #3E362F",
"n  c #3F3A32",
"m  c #40302A",
"M  c #41322C",
"N  c #43322C",
"B  c #42342E",
"V  c #44352E",
"C  c #46352F",
"Z  c #473630",
"A  c #423831",
"S  c #423932",
"D  c #413B33",
"F  c #453831",
"G  c #453A33",
"H  c #443B34",
"J  c #473B34",
"K  c #4A3933",
"L  c #483D35",
"P  c #483F37",
"I  c #4C3D36",
"U  c #494139",
"Y  c #4B4039",
"T  c #4C433B",
"R  c #4B443B",
"E  c #4A443C",
"W  c #4D463D",
"Q  c #504239",
"!  c #52423B",
"~  c #50463D",
"^  c #55453D",
"/  c #4F4A40",
"(  c #4F4A41",
")  c #504940",
"_  c #504941",
"`  c #504A41",
"'  c #564941",
"]  c #544D44",
"[  c #554E45",
"{  c #5A4B42",
"}  c #5C4D44",
"|  c #575046",
" . c #595248",
".. c #5F554B",
"X. c #5F574D",
"o. c #615249",
"O. c #64564B",
"+. c #62574E",
"@. c #64554C",
"#. c #66584E",
"$. c #645B51",
"%. c #675D52",
"&. c #685A50",
"*. c #6B5D52",
"=. c #695F55",
"-. c #6C6156",
";. c #6D6156",
":. c #6E6459",
">. c #73665B",
",. c #72685D",
"<. c #74685D",
"1. c #766A5E",
"2. c #786B5F",
"3. c #796D61",
"4. c #7B6E62",
"5. c #7C6F63",
"6. c #7D7063",
"7. c #7C7064",
"8. c #7D7064",
"9. c #7D7164",
"0. c None",
/* pixels */
"                          X r g g g ; @ 1 1 1 1 1 0 g g g B ` ` ` 0.",
"                          X r g g g r 7 & 1 1 1 & 7 g g g z F W ( ` ",
"                          X r g g g g r X & : : X d I I N g g Y ` ` ",
"                          X r g g g g r X         Q 4.4.^ g g Y ` ` ",
"                            % 7 g g 7 0 A f ; % v ..8.8.^ K &.;.:.:.",
"                              % 7 7 r x P m r 7 Y ..=.@.{ o.8.8.8.8.",
"                                  @ v P g g g l Y W Y N #.8.8.8.8.8.",
"                                @ r g z g g g f a i b *.2.8.8.8.8.8.",
"                                % u g g g g d 0 3 1 c 1.8.8.8.8.8.0.",
"                                % u g g g d 0 1 1 1 c 1.8.8.8.1.,.0.",
"                                % u g g g 0 1 1 1 1 c 1.8.8.5.X.[ 0.",
"                                X ; ; ; ; 1 i A A x j Q ^ { +.[ ` 0.",
"                            @ @ @ X       9 n ` ` P N g g B ` ` ` 0.",
"                            : 1 1 @       A ` ` ` ` T l g B ` ` ` 0.",
"                            : 1 1 : @     A ` ` ` ` T l g B ` ` ` ` ",
"                            @ : 1 1 @     a J ` ` T F g g m J W ` ` ",
"                              @ 1 1 @       0 E E A l V V N g ~ | | ",
"                              X X X X       * 9 9 a Z ;.>.o.l #.1.1.",
"                            ; 7 7 @       @ : 1 1 J #.4.:.+.o.1.8.8.",
"                        X @ 0 d d ; % % 7 i i 4 4 ' 4.>.$.%.8.8.8.8.",
"                        @ 1 1 0 g f 0 s W ` P f f } 1.[ ;.5.8.8.8.8.",
"                        @ 1 1 3 0 d 0 s ` ` P l J Y ' ;.2.8.8.8.6.0.",
"                        @ * 1 1 3 0 2 4 b F J F W Y I o.@.@.@.@.O.0.",
"                            : 1 1 1 & @ @ r F ` ` ` T l g g g l l 0.",
"                            X @ @ @ 7 r r F W ` ` ` T l g g g P R 0.",
"                                @ ; r g g V Y ` ` ` T l g z F W ( 0.",
"                                % u g g g g N P P Y Y N V Q  . .[ ` ",
"                                % u g g g g r % % 8 N W %.2.4.4.%.` ",
"                                X ; r g g 7 %     7 V %.1.8.8.8.1.;.",
"                                X @ 2 r r %       ; B 1.8.8.8.8.8.8.",
"                                X 1 1 &     X X X   a >.5.8.8.8.8.8.",
"                                X 1 1 :   7 r r r ; ; K *.8.8.8.8.8.",
"                                X & & * ; u g g g 7 % d Q @.=.=.:.8.",
"                                      % f g g g g 7 % d g B ` ` ` 0."
};
