/* XPM */
static const char *WALL_RIGHT[] = {
/* columns rows colors chars-per-pixel */
"40 40 164 2 ",
"   c #251613",
".  c #251713",
"X  c #261714",
"o  c #251814",
"O  c #271814",
"+  c #261915",
"@  c #261A16",
"#  c #261B17",
"$  c #281915",
"%  c #291A17",
"&  c #271D18",
"*  c #271E1A",
"=  c #271F1A",
"-  c #2A1B18",
";  c #2B1C18",
":  c #2A1E1A",
">  c #2C1D19",
",  c #2D1E1A",
"<  c #2E1E1A",
"1  c #27211B",
"2  c #2C201B",
"3  c #2D201B",
"4  c #28221C",
"5  c #28231D",
"6  c #2A221C",
"7  c #2F201C",
"8  c #2C231D",
"9  c #2A241E",
"0  c #2B241E",
"q  c #2E251F",
"w  c #32211D",
"e  c #33221E",
"r  c #33231F",
"t  c #2B2620",
"y  c #2E2720",
"u  c #312620",
"i  c #302621",
"p  c #332721",
"a  c #352420",
"s  c #362620",
"d  c #382621",
"f  c #382722",
"g  c #312A23",
"h  c #362822",
"j  c #332A24",
"k  c #342D26",
"l  c #372C26",
"z  c #3A2823",
"x  c #3A2924",
"c  c #392A25",
"v  c #3C2A25",
"b  c #3C2B26",
"n  c #3D2B26",
"m  c #3D2D27",
"M  c #3E2D27",
"N  c #382F29",
"B  c #3B2F29",
"V  c #3B2F2A",
"C  c #3E2E29",
"Z  c #39322B",
"A  c #3C342D",
"S  c #3F352E",
"D  c #3E3830",
"F  c #3F3931",
"G  c #402F29",
"H  c #412F2A",
"J  c #40312B",
"K  c #41322B",
"L  c #41322C",
"P  c #43332C",
"I  c #42332D",
"U  c #45352F",
"Y  c #403730",
"T  c #423630",
"R  c #433731",
"E  c #453630",
"W  c #443932",
"Q  c #453932",
"!  c #463B33",
"~  c #453C34",
"^  c #453E37",
"/  c #483831",
"(  c #493933",
")  c #4A3B35",
"_  c #483D35",
"`  c #493F37",
"'  c #4A3E36",
"]  c #4C3C35",
"[  c #4E3F38",
"{  c #494139",
"}  c #4B4038",
"|  c #4B423A",
" . c #4B433A",
".. c #4B433B",
"X. c #4F4139",
"o. c #4C443C",
"O. c #4D443C",
"+. c #4D463D",
"@. c #4E463D",
"#. c #4E473E",
"$. c #4E483F",
"%. c #4F483F",
"&. c #4F493F",
"*. c #50423B",
"=. c #52433B",
"-. c #51473F",
";. c #56463E",
":. c #50483F",
">. c #504A3F",
",. c #4F4840",
"<. c #4F4940",
"1. c #514941",
"2. c #504A40",
"3. c #504A41",
"4. c #514B42",
"5. c #534B42",
"6. c #534C44",
"7. c #534D44",
"8. c #564C44",
"9. c #574E45",
"0. c #594A42",
"q. c #5A4C42",
"w. c #5B4E45",
"e. c #595148",
"r. c #5A5249",
"t. c #5A534A",
"y. c #5C534A",
"u. c #5F554B",
"i. c #5F564C",
"p. c #605149",
"a. c #63534B",
"s. c #63544B",
"d. c #61564D",
"f. c #64564D",
"g. c #63594F",
"h. c #66594F",
"j. c #645A50",
"k. c #645B51",
"l. c #665B51",
"z. c #685E53",
"x. c #6B5F55",
"c. c #6C6157",
"v. c #6E6157",
"b. c #6E6358",
"n. c #6F6358",
"m. c #70665A",
"M. c #73665A",
"N. c #74685C",
"B. c #75685D",
"V. c #76695F",
"C. c #766A5E",
"Z. c #776A5F",
"A. c #796B60",
"S. c #796C61",
"D. c #796D61",
"F. c #786E60",
"G. c #7B6E62",
"H. c #7C6F63",
"J. c #7D6F63",
"K. c #7D6F64",
"L. c #7D7063",
"P. c #7C7064",
"I. c #7D7064",
"U. c None",
/* pixels */
"U.U.2.2...L v z < < a v v v v v w %                                             ",
"U.c.j.j.d.0.] v < < a v v v z a 3 & O O O                                       ",
"P.S.V.V.V.n.p./ w < w f f f a < & & 1 & O                                       ",
"P.P.P.P.P.S.M.p.C < ; < < < ; O O 1 4 1 O                                       ",
"P.P.P.P.P.P.H.V._ 7 X X X X X % 3 4 4 & O                                       ",
"S.H.P.P.P.P.H.V.*.f %     X ; w a p 3 O O                                       ",
"x.V.S.P.P.H.V.z.X.c ;   X - w z v z w < X                                       ",
"7.j.V.S.S.V.z.2.! c 3 % - w z v v v z a % X                                     ",
"2.e.i.g.u.0.X.! ! ! R S S C v v v v c f % X                                     ",
"2.2.2.%...U H H _ o.o.o...! L M v c f w % X                                     ",
"U.%...! K M v M _ o.2.2.<...! M z f w ; O O                                     ",
"U.U.! L v v v M _ o.2.2.<...R f w w < O O O O O                                 ",
"U.U.K L H H H L _ o.<.<.o.! v 7 % % & 4 4 4 1 O                                 ",
"U.U.p.s.s.s.s.p.*._ ....! ! ~ R k 7 q p 0 4 4 & & O                             ",
"U.S.S.A.A.A.V.x.w.*._ ! K _ o.o.D g p f p 0 4 4 & O                             ",
"H.L.K.P.P.S.n.i.j.p.[ C M _ o.%.D j p c z p 0 4 1 O                             ",
"P.P.P.P.S.n.z.j.M.h.) p h S D S k 7 3 a c h p 4 & O                             ",
"P.P.S.V.c.j.z.V.M.p.R 0 0 y q 3 - O % ; a a w ; O                               ",
"H.H.V.h.w.g.M.V.f.X.B 0 4 & O         O < < < %                                 ",
"V.V.z.*./ s.n.x.X.C j g g ; X       O O O O                                     ",
"e.e.2./ H U / / H L ~ ..~ p O     O & 1 1 & O                                   ",
"2.2.%._ R K M M L _ o.<.o.R j -   O & 4 4 & O O                                 ",
"2.<.%.o._ K v v ! o.<.2.<.o.R 3   O O 1 4 4 & O                                 ",
"U.:.<.2...L v M _ o.2.2.2.2.~ 7     O & 4 4 1 O                                 ",
"U.U.2.2...L v v ! ..%.2.<.o.D 3       O & 1 & O                                 ",
"U.U.2.2.o.E H H K R ..o.o.D g - X X O O O O O                                   ",
"U.U.7.y.u.q.;.*.L B S D D g 7 3 < < < < X                                       ",
"U.U.e.x.A.A.V.M...g t t t 0 q f z z z a % X                                     ",
"U.U.n.V.P.P.P.V...g 4 4 4 p h c v v c f % X                                     ",
"U.S.S.H.P.P.P.V...g 4 0 q h c v v v c f % X                                     ",
"P.P.K.P.P.P.S.M...k y p h c v v v v c a % X                                     ",
"P.P.P.P.P.S.M.s...S Z B v v v v H K c 7 O                                       ",
"P.P.P.P.H.V.f.) ..o.o.! v c v M R ! k % O X                                     ",
"P.P.P.P.M.p.q.s.j.g.9.! w f C ! R k a w w ; O                                   ",
"M.M.M.c.s.[ ;.V.S.x.-.B - 7 c R B p a c c w < O                                 ",
"e.e.9.*./ L ;.V.H.h.R < X % ; 3 w a z v v z a <                                 ",
"2.2.o.E v M ] p.s.*.f O O O O O < f v v v v f < X                               ",
"2.<.o.! H M H U E M 7 O 1 1 & O < a c v v v f < X                               ",
"U.:.o...! H v v v a 3 & 4 4 4 & ; 7 a v v v f < X                               ",
"U.U.2.2...L v v v h q 4 4 4 4 4 & - w v v v f < X                               "
};
