/* XPM */
static const char *WALL_LEFT[] = {
/* columns rows colors chars-per-pixel */
"24 24 6 1 ",
"  c #251613",
". c #28231D",
"X c #3C2A25",
"o c #504A41",
"O c #7D7064",
"+ c None",
/* pixels */
"          XXX ....XXXoo+",
"          XXXX .. XXXXoo",
"          XXXX    OOXXoo",
"           XX oX oOOXOOO",
"             oXXXooXOOOO",
"            XXXXX..OOOOO",
"            XXXX...OOOO+",
"            XXX....OOOo+",
"               .ooXXXoo+",
"          ..   ooooXXoo+",
"          ...  ooooXXooo",
"           ..   ooXXXXoo",
"                ..XOOXOO",
"          XX   ...OOoOOO",
"         ..XX.ooXXOoOOOO",
"         ...X.ooXoXOOOO+",
"          ...  XoooXXXX+",
"             XXooooXXXo+",
"            XXXXoooXXooo",
"            XXXX  XoOOOo",
"             XX   XOOOOO",
"            ..     OOOOO",
"            .. XXX XOOOO",
"              XXXX XXoo+"
};
