/* XPM */
static const char *WALL_UP[] = {
/* columns rows colors chars-per-pixel */
"34 34 120 2 ",
"   c #251613",
".  c #251714",
"X  c #261714",
"o  c #271815",
"O  c #261915",
"+  c #261A16",
"@  c #261B17",
"#  c #281916",
"$  c #2A1B17",
"%  c #271D19",
"&  c #281C18",
"*  c #281D19",
"=  c #2D1C19",
"-  c #2E1E1A",
";  c #2F1F1B",
":  c #27201A",
">  c #28211C",
",  c #2A211C",
"<  c #28221C",
"1  c #28231D",
"2  c #2E221D",
"3  c #2A241E",
"4  c #2D251F",
"5  c #30201C",
"6  c #31231E",
"7  c #33221E",
"8  c #33241F",
"9  c #2F2822",
"0  c #322420",
"q  c #312620",
"w  c #322721",
"e  c #352420",
"r  c #362520",
"t  c #352721",
"y  c #372621",
"u  c #392722",
"i  c #362923",
"p  c #312B24",
"a  c #342B25",
"s  c #332D26",
"d  c #392923",
"f  c #3B2A25",
"g  c #3C2A25",
"h  c #3D2B26",
"j  c #3B2D27",
"k  c #3D2C27",
"l  c #3E2D27",
"z  c #3F2F29",
"x  c #3A302A",
"c  c #3B332C",
"v  c #3D322C",
"b  c #3E352F",
"n  c #40302B",
"m  c #43312B",
"M  c #41322C",
"N  c #43332D",
"B  c #42342E",
"V  c #44342E",
"C  c #46352F",
"Z  c #473630",
"A  c #423932",
"S  c #403B33",
"D  c #453831",
"F  c #443A32",
"G  c #463A33",
"H  c #453C34",
"J  c #473C35",
"K  c #4A3933",
"L  c #483E37",
"P  c #4C3D36",
"I  c #494038",
"U  c #4A413A",
"Y  c #4E4039",
"T  c #4C433B",
"R  c #4B443B",
"E  c #4A443C",
"W  c #4D453C",
"Q  c #4D463D",
"!  c #51423B",
"~  c #50463D",
"^  c #55453D",
"/  c #4F4A40",
"(  c #504940",
")  c #504941",
"_  c #504A41",
"`  c #564941",
"'  c #544D44",
"]  c #554E45",
"[  c #5A4B42",
"{  c #5C4D44",
"}  c #575046",
"|  c #595248",
" . c #5F554C",
".. c #5F574D",
"X. c #615249",
"o. c #64564B",
"O. c #62574E",
"+. c #64554C",
"@. c #66584E",
"#. c #645B51",
"$. c #675D52",
"%. c #685A50",
"&. c #6B5D52",
"*. c #695F55",
"=. c #6B6156",
"-. c #6D6156",
";. c #6E6459",
":. c #73665B",
">. c #72685D",
",. c #74685D",
"<. c #766A5E",
"1. c #786B5F",
"2. c #796D61",
"3. c #7B6E62",
"4. c #7C6F63",
"5. c #7D6F63",
"6. c #7D7063",
"7. c #7D7064",
"8. c #7D7164",
"9. c None",
/* pixels */
"                                                                    ",
"                                                                    ",
"                                                                    ",
"                                                                    ",
"                                                                    ",
"                                                                    ",
"                                                                    ",
"                                                                    ",
"                                                                    ",
"                                                                    ",
"                                                                    ",
"                                                                    ",
"                      O O O .                                       ",
"                      * < < O                               . . . . ",
"                  . : < < < q -     O : : O               $ r r r r ",
"                  O < < 3 q d 7 . O : < < O             $ 7 g g g g ",
"  . . . . . $ $ O O < 3 q g d 7 . < < < < O . $ $ $ O   7 g g g g g ",
"  % < < O - u u - O < q d f - O . < < : O . - u u u r O 7 g g g g g ",
"  % < < 2 r g g r 7 % 2 q q $   . O O O     - g g g g v r 7 g g r - ",
"$ * : : r g g g g r O 4 s s *               - g g g z I x q r r 7 O ",
"f -     r g g g g r O b _ Q 7               - g g g g g L A . . % < ",
"g u 7   $ 7 g g V D r H _ _ p O     a A A 9 < q d g g g n f   % < < ",
"g g r .   $ r N I Q D H L H p : * q H _ _ A p < q d g g r -   : < < ",
"g g r .     * L _ _ _ D l f 4 < 9 E _ _ _ _ A < < q f l 7 $   : < < ",
"g g r .     * L _ _ _ Q H f 4 < 9 E _ _ _ _ A < < 3 a I I v   . % < ",
"7 7 -   - 7 8 I _ _ _ I T { ` D i D T _ _ I x < < < p Q  . .! d 7 q ",
"$ $ - i N V N I T T T P ` <.3.@.Z l D T T N j c c c b I *.7.3.P g g ",
"d d K :.<.$.Q N l l l X.=.] :.3.-.V g l l g ! <.<.<.&.N +.7.3.P g g ",
"g ! &.4.7.<.$.V g g g +.1.=.#.;.:.V g g g g ^ 7.7.7.1.@.[ ^ ^ n g g ",
"B +.7.7.7.7.1.T z g g +.7.4.$.O.X.n n B B B [ 7.7.7.7.7.X.K g g z B ",
"_ *.7.7.7.7.3.| D g g +.7.7.7.X.l g H _ _ _ O.4.7.7.7.7.7.%.g g D _ ",
"_ *.7.7.7.7.3.| Q H l +.7.7.7.<.@.~ Q _ _ _ ]  .<.7.7.7.7.-.I I Q _ ",
"_ ;.7.7.7.<.$.] / R l o.6.7.7.7.<.} _ _ _ _ _ ] >.4.7.7.7.;._ _ / _ ",
"9.7.7.7.7.=._ _ 9.9.9.9.9.7.7.7.<.} _ _ 9.9.9.9.9.9.7.7.7.;._ _ _ 9."
};
