/* XPM */
static const char *WALL_LEFT[] = {
/* columns rows colors chars-per-pixel */
"40 40 166 2 ",
"   c #251613",
".  c #251714",
"X  c #261714",
"o  c #271814",
"O  c #261915",
"+  c #261A16",
"@  c #261B17",
"#  c #281915",
"$  c #291A17",
"%  c #261C18",
"&  c #271E1A",
"*  c #271F1A",
"=  c #2A1B18",
"-  c #281C18",
";  c #291C18",
":  c #2B1C18",
">  c #2A1E1A",
",  c #2C1C19",
"<  c #2D1D1A",
"1  c #2D1E1A",
"2  c #2E1E1A",
"3  c #2E1F1B",
"4  c #27211B",
"5  c #28221C",
"6  c #28231D",
"7  c #2A221C",
"8  c #2D201C",
"9  c #2F201C",
"0  c #2C231D",
"q  c #2A241E",
"w  c #2B241E",
"e  c #2F251F",
"r  c #32211D",
"t  c #33221E",
"y  c #33231F",
"u  c #2B2620",
"i  c #2D2620",
"p  c #322520",
"a  c #302620",
"s  c #332721",
"d  c #352420",
"f  c #362620",
"g  c #382621",
"h  c #382722",
"j  c #312A23",
"k  c #362822",
"l  c #332A24",
"z  c #342D26",
"x  c #372C26",
"c  c #3A2823",
"v  c #3A2924",
"b  c #392A25",
"n  c #3C2A25",
"m  c #3C2B26",
"M  c #3D2C27",
"N  c #3E2D27",
"B  c #392F29",
"V  c #3C2E29",
"C  c #3F2F29",
"Z  c #39322B",
"A  c #3C342D",
"S  c #3F352E",
"D  c #3E3831",
"F  c #402F29",
"G  c #412F2A",
"H  c #40312B",
"J  c #41322B",
"K  c #41322C",
"L  c #43332C",
"P  c #41342D",
"I  c #41362F",
"U  c #45352F",
"Y  c #403730",
"T  c #433730",
"R  c #453630",
"E  c #423931",
"W  c #403A32",
"Q  c #453831",
"!  c #453932",
"~  c #463932",
"^  c #453B33",
"/  c #453B34",
"(  c #443D36",
")  c #483831",
"_  c #493A33",
"`  c #483B34",
"'  c #483D35",
"]  c #4A3D36",
"[  c #4C3C35",
"{  c #4D3C36",
"}  c #4B3F38",
"|  c #4F3F38",
" . c #4A4038",
".. c #4B4139",
"X. c #494239",
"o. c #4B423A",
"O. c #4B433A",
"+. c #4B433B",
"@. c #4F4139",
"#. c #4C443C",
"$. c #4D443C",
"%. c #4E473D",
"&. c #4E463E",
"*. c #4E473F",
"=. c #4E483F",
"-. c #4F493F",
";. c #51433B",
":. c #53433C",
">. c #56463E",
",. c #57473F",
"<. c #50483F",
"1. c #51483F",
"2. c #504A3F",
"3. c #4F4840",
"4. c #4F4940",
"5. c #514941",
"6. c #504A40",
"7. c #504A41",
"8. c #514B42",
"9. c #524B42",
"0. c #544C43",
"q. c #534C44",
"w. c #5A4B42",
"e. c #5B4E45",
"r. c #584F46",
"t. c #595248",
"y. c #5A534A",
"u. c #5F5249",
"i. c #5C534A",
"p. c #5F574C",
"a. c #605149",
"s. c #63534B",
"d. c #60554B",
"f. c #62544B",
"g. c #62564D",
"h. c #63594F",
"j. c #65584E",
"k. c #66594F",
"l. c #645B50",
"z. c #645B51",
"x. c #675B51",
"c. c #685E53",
"v. c #6B5F55",
"b. c #6C6157",
"n. c #6E6157",
"m. c #6E6358",
"M. c #6F6358",
"N. c #70665A",
"B. c #73665A",
"V. c #74685C",
"C. c #75685D",
"Z. c #76695F",
"A. c #766A5E",
"S. c #776A5F",
"D. c #796B60",
"F. c #796C61",
"G. c #796D61",
"H. c #786E60",
"J. c #7B6E62",
"K. c #7C6F63",
"L. c #7D6F63",
"P. c #7D6F64",
"I. c #7D7063",
"U. c #7C7064",
"Y. c #7D7064",
"T. c None",
/* pixels */
"                              X 2 h n n n t ; & 6 6 6 6 6 e k n n n K ..7.7.T.T.",
"                              X 2 h n n n d 9 ; & 6 6 6 & 9 d n n n V Q ..*.1.T.",
"                              X 2 h n n n v d 2 o & 4 4 o 9 M R U G M V Q *.4.7.",
"                              X 2 h n n n n h 2 o o o o X h ;.f.a.{ M n R *.7.7.",
"                                2 d c n n c d t 9 ; # X 2 T j.K.C.>.K ) ;.e.t.t.",
"                                o 2 t v v d p V I v 9 = B 1.v.G.C.>.| f.b.B.B.B.",
"                                  o 2 t t d x I Q M h t E 0.h.x.f.w.a.B.Y.Y.Y.Y.",
"                                    X o # x E I M n v n / *.*...) g.C.K.Y.Y.Y.Y.",
"                                      o 9 v H V n n n n B Z A ..f.B.G.Y.Y.Y.Y.Y.",
"                                    X # d v n n n n v k p i x ..B.G.Y.Y.Y.P.Y.Y.",
"                                    X # h v n n n v k e q 6 j ..C.Y.Y.Y.K.G.G.T.",
"                                    X # h v n n v k p 6 6 6 j ..C.Y.Y.Y.C.M.T.T.",
"                                    X # d c c c h e q u u u j ..B.C.D.D.v.t.T.T.",
"                                      X 2 2 2 2 2 9 j D E A B I :.>.w.f.u.q.T.T.",
"                                X o o o o o X X ; j D *.*...T H G G R *.7.7.T.T.",
"                                o & 4 & o       9 D *.4.7.*...Q n n K ..7.7.T.T.",
"                                o 4 6 6 ; o X   9 ( 7.7.7.7.*.' M n K ..7.4.1.T.",
"                                o & 6 6 4 & X   9 T *.4.7.4.*.Q n n H ..*.=.4.7.",
"                                o & & 6 6 & X   ; l T *.4.*.` I M M H U ..*.7.7.",
"                                  X & 4 4 & X     o p ( ../ I G ) ) U G ) 0.t.t.",
"                                    X o o X       X ; j j l V @.v.M.f.) :.c.C.C.",
"                                # 2 2 2 o       X o & 6 q B @.j.C.B.h.e.j.C.K.K.",
"                              X ; t d d 2 # o = 9 i i q q T u.B.C.c.x.b.C.G.Y.Y.",
"                            o & 6 p k v d 9 9 x A E A k p ' j.B.x.c.M.G.Y.Y.Y.Y.",
"                            o 4 6 q p c v p l E *.*.' M V } u.x.p.M.G.Y.Y.P.I.K.",
"                            o & 6 6 q p h p j D *.*.` H Q ..;.e.v.C.D.D.D.G.G.T.",
"                            o ; & 6 6 q p e 9 x T Q ` Q ....} ;.a.f.f.f.f.a.T.T.",
"                              X & 4 6 6 6 & # # 9 n Q *.4.4.*.' K G G G K H T.T.",
"                                X o o o o 2 t t h T ..4.7.7.*.' M n n n K Q T.T.",
"                                  X o o ; t h c M Q ..4.7.7.*.' M n M H / ..=.T.",
"                                    X # t h v n M K ` *.*.*.*.' V G R ..1.7.7.7.",
"                                    X # h v n n n n V A A I Q / Q @.w.f.h.p.e.7.",
"                                    X # d c n n n c t = # 2 v Q 7.c.C.G.G.C.x.0.",
"                                      X 2 t c n c t = X   ; v @.c.C.K.Y.Y.G.C.v.",
"                                      X o 9 p d t = X     = h ;.C.K.Y.Y.Y.Y.K.G.",
"                                      X & 6 6 ; # X X X X o 9 ' C.K.Y.Y.Y.Y.Y.Y.",
"                                      o 4 6 4 o o ; 2 2 2 ; 2 V a.B.G.Y.Y.Y.Y.Y.",
"                                      X & 4 & ; 2 t h h h t 2 t ) a.M.C.C.C.G.Y.",
"                                      X o o ; 2 t c n n n d 2 2 n { w.g.x.x.b.T.",
"                                            # t n n n n n d 2 2 c n K ..7.7.T.T."
};
