/* XPM */
static const char *WALL_RIGHT[] = {
/* columns rows colors chars-per-pixel */
"34 34 122 2 ",
"   c #251613",
".  c #261714",
"X  c #251814",
"o  c #271814",
"O  c #261915",
"+  c #261A16",
"@  c #261B17",
"#  c #281916",
"$  c #291B17",
"%  c #2A1B17",
"&  c #271C18",
"*  c #281D19",
"=  c #2D1C19",
"-  c #2E1E1A",
";  c #2F1F1B",
":  c #27201A",
">  c #28211C",
",  c #2A211C",
"<  c #28221C",
"1  c #28231D",
"2  c #2E221D",
"3  c #2A241E",
"4  c #2D251F",
"5  c #30201C",
"6  c #31231E",
"7  c #33221E",
"8  c #33241F",
"9  c #2F2822",
"0  c #322420",
"q  c #312620",
"w  c #322721",
"e  c #352420",
"r  c #362520",
"t  c #352721",
"y  c #372621",
"u  c #392722",
"i  c #312B24",
"p  c #362924",
"a  c #342B25",
"s  c #332D26",
"d  c #392923",
"f  c #3B2A25",
"g  c #3C2A25",
"h  c #3D2B26",
"j  c #3B2D27",
"k  c #3D2C27",
"l  c #3E2D27",
"z  c #3F2F29",
"x  c #3A302A",
"c  c #3B332C",
"v  c #3D322C",
"b  c #3E362F",
"n  c #40302B",
"m  c #41322C",
"M  c #43322C",
"N  c #42342E",
"B  c #44352E",
"V  c #46352F",
"C  c #473630",
"Z  c #423932",
"A  c #403B33",
"S  c #453831",
"D  c #453A33",
"F  c #443B34",
"G  c #473B34",
"H  c #473D35",
"J  c #473F37",
"K  c #4A3933",
"L  c #493D36",
"P  c #4D3D36",
"I  c #494038",
"U  c #4A413A",
"Y  c #4E4139",
"T  c #4C433B",
"R  c #4B443B",
"E  c #4A443C",
"W  c #4D453C",
"Q  c #4D463D",
"!  c #51423B",
"~  c #50463D",
"^  c #55453D",
"/  c #4F4940",
"(  c #4F4A40",
")  c #4F4A41",
"_  c #504940",
"`  c #504941",
"'  c #504A41",
"]  c #564941",
"[  c #544D44",
"{  c #554E45",
"}  c #5A4B42",
"|  c #5C4D44",
" . c #575046",
".. c #595248",
"X. c #5F554B",
"o. c #5F574D",
"O. c #615249",
"+. c #64564B",
"@. c #62574E",
"#. c #64554C",
"$. c #66584E",
"%. c #645B51",
"&. c #675D52",
"*. c #685A50",
"=. c #6B5D52",
"-. c #695F55",
";. c #6C6156",
":. c #6D6156",
">. c #6E6459",
",. c #73665B",
"<. c #72685D",
"1. c #74685D",
"2. c #766A5E",
"3. c #786B5F",
"4. c #796D61",
"5. c #7B6E62",
"6. c #7C6F63",
"7. c #7D7063",
"8. c #7C7064",
"9. c #7D7064",
"0. c #7D7164",
"q. c None",
/* pixels */
"q._ _ _ N g d % 6 g g g g f %                                       ",
"0.>.-.-.#.! d % 6 g g g u - * & & @                                 ",
"0.0.0.0.0.=.K - - y y y 6   : 1 1 @                                 ",
"0.0.0.0.0.6.,.p   . . .     : 1 1 @                                 ",
"0.0.0.0.0.0.2.N -       % y y 2 @ @                                 ",
";.2.0.0.0.2.&.V 6     % 6 g g y - .                                 ",
"_ &.4.4.3.&.W m 8 % % y g g g g u %                                 ",
"_ { ....Y V m I I H H m g g g g u %                                 ",
"q.) W D z g l Y _ _ _ I V g g y - @                                 ",
"q.R H g g g l Y _ _ _ W D y y 6 @ @ @ @                             ",
"q.l l g g g l Y _ _ _ D y @ @ & 1 1 1 :                             ",
"q.+.#.#.#.#.O.L I W D G G b 4 2 q 3 1 1 * @                         ",
"q.7.0.0.0.3.;.] Y G l H _ ) s q d q 3 1 1 @                         ",
"0.0.0.0.6.;.{ 2.| f f H ) W s q f g q 1 1 @                         ",
"0.0.0.0.&.%.,.4.] 4 4 i i 6 % % - d d q @ @                         ",
"0.0.2.O.@.>.4.$.G 1 1 : @       @ 6 6 -                             ",
"2.2.$.l O.,.;.C p 9 9 *       @ @ @ @                               ",
" . .~ g m V V l D E E q       @ 1 1 @                               ",
"_ _ W H n g g D Y _ _ G p     @ 1 1 & @                             ",
"_ _ _ _ N g l Y _ _ _ _ Z     @ & 1 1 &                             ",
"q._ _ _ N g l Y _ _ _ _ Z       @ 1 1 :                             ",
"q._ _ _ N g g m I _ _ Z 9       @ @ @ @                             ",
"q._ { @.} ^ ! j x Z Z i 1 - - - - .                                 ",
"q.{ o.6.0.0.2.c 1 1 1 1 q g g g u %                                 ",
"q.<.2.0.0.0.2.c 1 1 1 q d g g g u %                                 ",
"q.0.0.0.0.0.2.c 1 3 q d g g g g u %                                 ",
"0.0.0.0.0.3.=.b i p f g g g z g y @                                 ",
"0.0.0.0.0.$.m I W I l g g g I v @                                   ",
"0.0.0.0.O.} #.-.X.I 6 y n L x y 6 6 %                               ",
">.>.;.*.K ^ 0.0.X.v % - f Z q 6 g g 6 %                             ",
"_ _ I g g ^ 4.4.!         . y g g g g y .                           ",
"_ _ I g g m P P d @ : : & . y g g g g y .                           ",
"_ ) W D z g g g 6 & 1 1 1 & 6 y g g g y .                           ",
"q._ _ _ N g g g q 1 1 1 1 1 @ - g g g y .                           "
};
