/* XPM */
static char *_dfb746ac6564b53b981c9d17925916adPzsXo0i4FL2Zc1G[] = {
/* columns rows colors chars-per-pixel */
"24 24 9 1 ",
"  c None",
". c #3C2A25",
"X c #504A41",
"o c #504A41",
"O c #3C2A25",
"+ c #251613",
"@ c #7D7064",
"# c #28231D",
"$ c white",
/* pixels */
" ooOO+OOOO++++++++++++++",
"@@@@O+OOO+##++++++++++++",
"@@@@@+++++##++++++++++++",
"@@@@@O+++OO+++++++++++++",
"o@@@oO++OOOO++++++++++++",
"oooOOoooOOOO++++++++++++",
" oOOOooooOO+++++++++++++",
".OOOOoooO++###++++++++++",
".@@@@OoOoo#O###+++++++++",
"@@@@o@OOoo#OO##+++++++++",
"@@@o@@###+++OO++++++++++",
"@@O@@O##++++++++++++++++",
"ooOOOOoo+++##+++++++++++",
"oooOOoooo++###++++++++++",
" ooOOoooo+++##++++++++++",
" ooOOOoo#+++++++++++++++",
" o@@@####OOO++++++++++++",
" @@@@###OOOO++++++++++++",
"@@@@@##OOOOO++++++++++++",
"@@@@OooOOOo+++++++++++++",
"@@@O@@o+Oo+OO+++++++++++",
"ooOO@@++++OOOO++++++++++",
"ooOOOO+##+OOOO++++++++++",
"XooOOO####+OOO++++++++++"
};
