/* XPM */
static const char *coin_5[] = {
/* columns rows colors chars-per-pixel */
"11 11 5 1 ",
"  c #1B1B1B",
". c #F2741B",
"X c #FBC41B",
"o c #FFF21B",
"O c None",
/* pixels */
"OOOOOOOOOOO",
"OOOO    OOO",
"OOO oooo OO",
"OOO .Xoo OO",
"OOO .XXo OO",
"OOO ..oo OO",
"OOO ..oo OO",
"OOO .XXo OO",
"OOO ..Xo OO",
"OOO .... OO",
"OOOO    OOO"
};
