/* XPM */
static const char *coin_2[] = {
/* columns rows colors chars-per-pixel */
"11 11 5 1 ",
"  c #1B1B1B",
". c #F2741B",
"X c #FBC41B",
"o c #FFF21B",
"O c None",
/* pixels */
"OOOOOOOOOOO",
"OOO    OOOO",
"OO oooo OOO",
"O ooXXX. OO",
"O oXXoX. OO",
"O oXo.X. OO",
"O oXo.X. OO",
"O oX.XX. OO",
"O oXXX.. OO",
"OO .... OOO",
"OOO    OOOO"
};
