/* XPM */
static const char *CORNER_RU[] = {
/* columns rows colors chars-per-pixel */
"40 40 49 1 ",
"  c #251613",
". c #251714",
"X c #261915",
"o c #261B17",
"O c #271D18",
"+ c #2A1B18",
"@ c #291E19",
"# c #2D1F1B",
"$ c #28201B",
"% c #28211C",
"& c #2B211C",
"* c #28231D",
"= c #2A241D",
"- c #2F241E",
"; c #31211E",
": c #2D2720",
"> c #312620",
", c #342520",
"< c #382722",
"1 c #332821",
"2 c #352822",
"3 c #372B25",
"4 c #352E27",
"5 c #3A2924",
"6 c #3C2A25",
"7 c #3E2D28",
"8 c #37312A",
"9 c #38322B",
"0 c #3F352F",
"q c #3F3831",
"w c #41332D",
"e c #433630",
"r c #413931",
"t c #433D35",
"y c #473C35",
"u c #484038",
"i c #4B443B",
"p c #4D463E",
"a c #4F4940",
"s c #504A41",
"d c #564C43",
"f c #584F46",
"g c #5B534A",
"h c #5F564C",
"j c #63544B",
"k c #635A50",
"l c #756A5E",
"z c #796B60",
"x c #7D7064",
/* pixels */
"                                        ",
"                                        ",
"                                        ",
"                                        ",
"                                        ",
"                                        ",
"                                        ",
"                                        ",
"                                        ",
"                                        ",
"                                        ",
"                                        ",
"                                        ",
"                                        ",
"                                        ",
"                                        ",
"                                        ",
"                                        ",
"                                        ",
"                                        ",
"                                        ",
"                                        ",
"                                        ",
"                                        ",
"                                        ",
"   ......                               ",
"  .+####X.                              ",
"..+;<55<#X                              ",
"O#><6665#X                              ",
"&-156652#X.                             ",
"-:15752-&@X.  ...                       ",
"9990w3>&--#+.XXXX.                      ",
"ppppy4-=1<<;XO&&OX                      ",
"sssspt8-155,$&&&&OX                     ",
"ipasapq:>2,-&&&&&$X                     ",
"wypaapr-=&@@&&&&&&X                     ",
"euiurq8=$OXXO&&&&OX                     ",
"issu008-OX..XO$&OXXX                    ",
"sgkhfdu2@.   XXXOOOO.                   ",
"sklxxzj7#X      X$&$X                   "
};
