/* XPM */
static const char *CORNER_RD[] = {
/* columns rows colors chars-per-pixel */
"40 40 48 1 ",
"  c #251613",
". c #251714",
"X c #261815",
"o c #271C17",
"O c #291916",
"+ c #2A1B18",
"@ c #2A1F1A",
"# c #2E1E1A",
"$ c #27201A",
"% c #28211B",
"& c #28231D",
"* c #2C231E",
"= c #2A241E",
"- c #2E241E",
"; c #33221E",
": c #2C2620",
"> c #322520",
", c #362622",
"< c #322B24",
"1 c #322C26",
"2 c #392823",
"3 c #3A2824",
"4 c #3C2A25",
"5 c #3E2F29",
"6 c #3C352E",
"7 c #3F3730",
"8 c #3F3931",
"9 c #43332E",
"0 c #463731",
"q c #453D35",
"w c #484037",
"e c #4A423B",
"r c #4C463D",
"t c #4F483F",
"y c #55483F",
"u c #504A41",
"i c #5C4E46",
"p c #5A5147",
"a c #5F5148",
"s c #5C544A",
"d c #63544B",
"f c #635A50",
"g c #6F6359",
"h c #73675C",
"j c #756A5E",
"k c #786B5F",
"l c #7A6C61",
"z c #7D7064",
/* pixels */
"ufjzzkd5#X      X%&%X                   ",
"fglzzka,+.      X%&%X                   ",
"jlzzlgy#OOOOO.  X$%$.                   ",
"zzzzhi9+#;;;;+. .XXX.                   ",
"hhhgd0;#,2332#.                         ",
"sspy0,;,24443#.                         ",
"uutw5;#344443#.                         ",
"uuutq>#344442#.                         ",
"uuuuw<-34432>+.                         ",
"uute8<-,,,;;@X.                         ",
"rre81:=-@#++X.                          ",
"7761&&&%o.                              ",
"O@*=&&&%X.                              ",
" Xo$&&$oX                               ",
" .Xo%$o.                                ",
"   .XX.                                 ",
"XX.                                     ",
"%o.                                     ",
"&o.                                     ",
"%o.                                     ",
"X.                                      ",
"                                        ",
"                                        ",
"                                        ",
"                                        ",
"                                        ",
"                                        ",
"                                        ",
"                                        ",
"                                        ",
"                                        ",
"                                        ",
"                                        ",
"                                        ",
"                                        ",
"                                        ",
"                                        ",
"                                        ",
"                                        ",
"                                        "
};
