/* XPM */
static const char *FLOOR[] = {
/* columns rows colors chars-per-pixel */
"40 40 137 2 ",
"   c #251613",
".  c #271714",
"X  c #2B1714",
"o  c #261915",
"O  c #2B1915",
"+  c #2D1915",
"@  c #271E19",
"#  c #291E19",
"$  c #2E1D19",
"%  c #301916",
"&  c #341C17",
"*  c #301F1B",
"=  c #381B18",
"-  c #381F18",
";  c #3C1C19",
":  c #27201B",
">  c #2E201B",
",  c #28221C",
"<  c #2E231F",
"1  c #2B241E",
"2  c #2E251F",
"3  c #33221E",
"4  c #33241F",
"5  c #3B2019",
"6  c #3C241D",
"7  c #2F2620",
"8  c #312620",
"9  c #362722",
"0  c #382722",
"q  c #372823",
"w  c #392923",
"e  c #3B2A25",
"r  c #3C2A25",
"t  c #411E1B",
"y  c #451F1C",
"u  c #43241B",
"i  c #46201C",
"p  c #45241C",
"a  c #48201D",
"s  c #4C271E",
"d  c #4E291F",
"f  c #50221F",
"g  c #4F2E22",
"h  c #552421",
"j  c #582621",
"k  c #5E2723",
"l  c #522920",
"z  c #552B20",
"x  c #582D21",
"c  c #5F2D23",
"v  c #5A3124",
"b  c #652925",
"n  c #622C24",
"m  c #692B26",
"M  c #6B2D27",
"N  c #6D2E27",
"B  c #683026",
"V  c #6C3027",
"C  c #683525",
"Z  c #6E3028",
"A  c #703827",
"S  c #713128",
"D  c #743329",
"F  c #763629",
"G  c #78362A",
"H  c #753A29",
"J  c #79382B",
"K  c #7D392B",
"L  c #783C2A",
"P  c #813D2D",
"I  c #86422E",
"U  c #8A422F",
"Y  c #834532",
"T  c #864632",
"R  c #8B4630",
"E  c #8F4630",
"W  c #8A4E35",
"Q  c #914831",
"!  c #954A32",
"~  c #914E34",
"^  c #8D5439",
"/  c #9A5036",
"(  c #9C5537",
")  c #91573A",
"_  c #9E5739",
"`  c #9D5B3B",
"'  c #9B5F3D",
"]  c #A15D3B",
"[  c #A65E3B",
"{  c #A0603D",
"}  c #A5623E",
"|  c #A8623D",
" . c #AB663F",
".. c #A66640",
"X. c #AB6941",
"o. c #AF6B42",
"O. c #B46F43",
"+. c #B77144",
"@. c #B97747",
"#. c #BB7A48",
"$. c #BF7D4A",
"%. c #C3804B",
"&. c #C7844D",
"*. c #C9864E",
"=. c #CA894F",
"-. c #C98E52",
";. c #CF8D51",
":. c #CF9857",
">. c #D39153",
",. c #D19254",
"<. c #D39655",
"1. c #D79756",
"2. c #D89956",
"3. c #DA9C58",
"4. c #D7A45D",
"5. c #DAA15A",
"6. c #D9A85E",
"7. c #E0A65D",
"8. c #E3AA5F",
"9. c #DDAC60",
"0. c #E2AF61",
"q. c #E7AF61",
"w. c #E7B363",
"e. c #E9B262",
"r. c #EBB564",
"t. c #ECB765",
"y. c #EFBA66",
"u. c #F1BE68",
"i. c #F3C169",
"p. c #F4C26A",
"a. c #F5C46A",
"s. c #F7C66C",
"d. c #FACB6E",
"f. c #FBCC6F",
"g. c #FCCD6F",
"h. c #FDCF70",
"j. c #FED171",
/* pixels */
"j.j.j.j.j.f.t.2.t.y.8.8.d.j.j.j.j.j.h.a.3.q.y.8.3.u.j.j.j.j.j.j.j.j.j.h.t.7.r.j.",
"j.j.j.j.j.h.p.e.p.a.y.y.g.j.j.j.j.f.u.q.1.q.u.y.r.d.j.j.j.j.j.j.h.u.u.d.p.t.i.j.",
"j.j.h.d.s.s.p.u.p.s.s.s.s.f.j.j.f.i.q.2.>.8.u.s.s.d.d.h.j.j.h.f.a.q.8.u.s.d.f.j.",
"j.j.d.y.8.8.8.8.8.r.p.i.q.p.h.j.p.q.3.>.>.3.q.p.d.t.y.g.j.j.g.i.8.2.2.7.y.d.j.j.",
"9.0.8.<.*.;.>.>.=.,.5.5.=.5.w.w.7.1.>.;.&.=.<.7.8.,.<.0.0.9.6.:.$.#.#.#.-.4.9.9.",
"^ ' ..|  .$.=.*.O. . . .[  .o.o.@.&.=.%. .+.$.#.o.| | X.' ) ^ W T Y Y T W ^ ) ) ",
"b S K P R ` ....( Q U U Q U P P ~ { ..} / _ ] ( ! ! E P S m b N D N M D S M S G ",
"m m m M N N V V P P G G U G N M N V S F U P J P E E P N m b m F U G F I K S K Q ",
"P D Z F J M h i n Z N N D N Z J F m b m D Z N S G F S m F F S G E U U E A x A ! ",
"Q F B J P c y % i j k k j h n P J n b S M m b k j j j b V B B V H I U L x u z H ",
"R C l B L s % . % t f f ; = s L C l c J M b j a = - a j s s h h s A H z - % - p ",
"C s 5 d x -       % ; ; .   - v g 6 s B b j a %   . & i & % ; ; + d l &         ",
"% X . O O .       o O O .   O < 2 , $ - h a % .     . O . . . .   O O .   . . . ",
"              . o # < 3 3 O o : , , @ X - % O       o @ @ o o           o @ @ @ ",
"o o o o o . . o @ < 9 e 0 > @ @ : @ o   . . . o o o @ , , : @ o     . o @ , , , ",
": : : : @ o o : , < q e e < @ o o o .       . @ : : , , , , : @ .   o @ , , , , ",
", , , , : o o , , 2 8 8 8 2 , > > $ O     o o : , , , , : @ @ o     o : 1 2 7 7 ",
", , , , , # # , 1 2 1 , , 2 7 9 0 9 * O   o # , 1 , , , @ o o o o o o @ < 9 w w ",
", , , , , 3 4 8 8 7 , : @ < 8 e r e 9 * o $ 4 8 8 1 , , : o o o @ @ @ @ < q e e ",
", , , 1 7 q r r r 9 2 @ o 3 e r r r e 9 O * 0 r q 2 , , , @ # $ 2 , : o $ 4 0 q ",
", , 1 8 w e r r r 9 $ . o 3 e r r r e 9 O * 0 r q 2 , , @ $ 3 0 9 7 , , # # $ 2 ",
"@ @ # 4 e r r r r 9 #   . 3 e r r e q 7 @ $ 3 4 8 1 : @ $ 3 9 e e 9 7 1 @ o o @ ",
"o o O 3 0 e r e w 3 O   . 3 9 q w q 8 1 , # # # , , @ o 3 9 e r r e 9 , @ o . o ",
"    . O * 0 r e 3 $ O   . O > < 7 2 2 , , , @ @ o o o . 3 w r r r r 9 $ o .     ",
"        O 3 9 9 $ o o .     o : , , , , , , : o       . 3 9 e r r 0 3 O         ",
"        . O # # @ @ @ o .   o @ , , , , , , : o       . $ 4 q e 0 3 O .         ",
"              . @ , , @ .   o @ @ @ : , , : @ o       . o # < 3 3 O .           ",
"              . @ , , @ .     . . o @ , , @ o             . . . .               ",
"                o o o o           . o o o o .                                   ",
"                . . . .               . .                                       ",
"                                                                                ",
"                                                                                ",
"                                                                                ",
"                                                                                ",
"                                                                                ",
"                                                                                ",
"                                                                                ",
"                                                                                ",
"                                                                                ",
"                                                                                "
};
