/* XPM */
static const char *WALL_UP[] = {
/* columns rows colors chars-per-pixel */
"40 40 164 2 ",
"   c #251613",
".  c #251714",
"X  c #261714",
"o  c #261815",
"O  c #271815",
"+  c #261A16",
"@  c #261B17",
"#  c #281916",
"$  c #291A17",
"%  c #2A1B17",
"&  c #271C18",
"*  c #271E1A",
"=  c #271F1A",
"-  c #291C18",
";  c #2B1C18",
":  c #2B1F1A",
">  c #2C1C19",
",  c #2D1D1A",
"<  c #2D1E1A",
"1  c #2D1F1B",
"2  c #2E1E1A",
"3  c #27211B",
"4  c #28221C",
"5  c #28231D",
"6  c #2A221C",
"7  c #2E201C",
"8  c #2F201C",
"9  c #2D231D",
"0  c #2B241E",
"q  c #2E251F",
"w  c #32211D",
"e  c #33221E",
"r  c #33231F",
"t  c #2B2620",
"y  c #2E2720",
"u  c #302620",
"i  c #322620",
"p  c #332721",
"a  c #352420",
"s  c #362620",
"d  c #382621",
"f  c #382722",
"g  c #312A23",
"h  c #362822",
"j  c #332A24",
"k  c #342C26",
"l  c #3A2823",
"z  c #3A2924",
"x  c #392A25",
"c  c #3C2A25",
"v  c #3C2B26",
"b  c #3D2B26",
"n  c #382D27",
"m  c #3D2D27",
"M  c #3E2D27",
"N  c #392F28",
"B  c #3E2E29",
"V  c #3B3029",
"C  c #39322B",
"Z  c #3C342D",
"A  c #3F352E",
"S  c #3F3730",
"D  c #3F3A31",
"F  c #402F29",
"G  c #412F2A",
"H  c #40312B",
"J  c #41322B",
"K  c #41322C",
"L  c #43332C",
"P  c #42332D",
"I  c #42362F",
"U  c #45352F",
"Y  c #403730",
"T  c #433731",
"R  c #453630",
"E  c #483731",
"W  c #413830",
"Q  c #433932",
"!  c #473831",
"~  c #453932",
"^  c #463A33",
"/  c #463C34",
"(  c #473C35",
")  c #453D36",
"_  c #493933",
"`  c #4C3B34",
"'  c #483D35",
"]  c #4A3F37",
"[  c #4C3C36",
"{  c #4E3E37",
"}  c #4A3F38",
"|  c #4A4239",
" . c #4A423A",
".. c #4B433B",
"X. c #4F4038",
"o. c #4D413A",
"O. c #4C443C",
"+. c #4D443C",
"@. c #4D463D",
"#. c #4E463D",
"$. c #4E473E",
"%. c #4D483E",
"&. c #4F493F",
"*. c #51433B",
"=. c #51473F",
"-. c #56463E",
";. c #50483F",
":. c #504A3F",
">. c #4F4840",
",. c #4F4940",
"<. c #504A40",
"1. c #504A41",
"2. c #514B42",
"3. c #534B42",
"4. c #534C44",
"5. c #534D44",
"6. c #564C44",
"7. c #574E45",
"8. c #594A42",
"9. c #5A4C42",
"0. c #5B4E45",
"q. c #595148",
"w. c #5A5249",
"e. c #5A534A",
"r. c #5C534A",
"t. c #5F554B",
"y. c #5F564C",
"u. c #605149",
"i. c #63534B",
"p. c #62544B",
"a. c #61564D",
"s. c #64564D",
"d. c #64594F",
"f. c #66594F",
"g. c #645A50",
"h. c #645B51",
"j. c #665B51",
"k. c #6A5D52",
"l. c #685E53",
"z. c #6B5F55",
"x. c #6C6157",
"c. c #6E6157",
"v. c #6E6358",
"b. c #6F6358",
"n. c #70665A",
"m. c #73665A",
"M. c #74685C",
"N. c #75685D",
"B. c #76695F",
"V. c #766A5E",
"C. c #776A5F",
"Z. c #796D5F",
"A. c #796B60",
"S. c #796C61",
"D. c #786D61",
"F. c #796D61",
"G. c #7B6E62",
"H. c #7C6F63",
"J. c #7D6F63",
"K. c #7D6F64",
"L. c #7D7162",
"P. c #7D7063",
"I. c #7D7064",
"U. c None",
/* pixels */
"                                                                                ",
"                                                                                ",
"                                                                                ",
"                                                                                ",
"                                                                                ",
"                                                                                ",
"                                                                                ",
"                                                                                ",
"                                                                                ",
"                                                                                ",
"                                                                                ",
"                                                                                ",
"                                                                                ",
"                                                                                ",
"                          o o o o                                               ",
"                        . & & 3 & .                                     . . . . ",
"                      . o & 6 6 6 > #     o o o o .                 o > > > > > ",
"                    . o 3 6 6 0 u r >   . o & 3 & o               o > s d d d d ",
"              . . . . o 6 6 0 u h s > . & & 6 6 3 o   o . . .   . > r l b b b b ",
"  . . o . . . # # # o o 6 0 u l z s > o 3 6 6 6 & o . # # # # o o r z b b b b b ",
"  o & 3 & o > s d r ; o 6 u d z s > o o 3 6 3 & o o > s d d s 7 # r z b b z b b ",
"  o 3 6 6 7 r l z d r > & q u u 7 # . . & & o o   . > l z z z z z s s l b z s r ",
"# ; & 3 6 u l b b z d r # q g j 7 #     . . . .   . > l b b b H W n u s d s 7 ; ",
"r > ; o ; s b b b b l r # k S D k ;               . > l b b b F I T V r > > 6 & ",
"b s > o # r d b b m m d 7 T O.,.Z 7 .     # > 7 > ; > d z b b b m ^ I 7 o o & 0 ",
"b l s ; . ; r l b P ^ T b / O.,.D q o . o j S / S g 0 q h z b b b B z ; o & 6 6 ",
"b b d > . . # r B ^ | | ^ / / / Z y & ; u W O.1.O.D g 6 u h z b z d 7 # o 3 6 6 ",
"b b d > .   . ; Z | ,.,.O.^ H m h 0 6 g / O.,.1.,.O.S t 6 q h b b r # . o 3 6 6 ",
"b b d > .     # Z O.1.1.,.| ^ B u 0 0 g | ,.1.1.1.O.D t 6 0 u V / W N > . o & 6 ",
"s s r ; . # ; 7 T O.1.1.,.| } { ' W N j / O.,.1.,.| Z t 6 6 y V O.7.=.T d 7 7 q ",
"> > > > 7 d z z ^ O.O.O.O.' *.u.f.u.o.B P / O.O.| T V g g g k Z O.f.z.f.*.m s h ",
"> > r B ' *.o.^ / ' ' ' ' *.0.j.m.m.s.o.F P ^ ' ^ H P } | | | } o.j.G.H.p.R b b ",
"l b ^ u.N.N.l.1.^ F m m P u.z.y.j.N.N.z.^ m b m b F *.m.N.N.m.p.` p.N.N.u.U b b ",
"b { u.m.H.H.N.l.o.F b b F p.N.b.l.l.m.b._ m b b b F -.N.I.I.G.m.s.9.-.-.` F b b ",
"P 8.b.G.I.I.H.N.8.U m b F p.A.G.b.j.f.p.U F H P P R 9.A.I.I.I.G.N.u.o.P m m F P ",
"| a.N.I.I.I.I.G.t.} H b F p.A.I.G.x.0.E F I ' | | O.t.A.I.I.I.I.H.m.p.E b F W | ",
"1.j.N.I.I.I.I.G.f.,./ P P p.A.I.I.N.f.*._ } O.1.1.1.r.z.N.H.I.I.I.I.x.*.R ^ | 1.",
"1.j.N.I.I.I.G.N.y.1.| ^ H u.G.K.I.G.N.l.1.,.%.,.,.1.5.q.b.G.K.I.I.I.m.7.O.O.O.1.",
"U.x.G.I.I.H.N.j.q.1.%.U.U.U.Z.L.I.I.H.N.q.1.,.;.U.U.U.U.U.G.L.I.I.I.m.q.1.,.;.U.",
"U.U.L.I.I.G.z.5.1.1.U.U.U.U.U.H.I.I.H.N.q.1.1.U.U.U.U.U.U.U.I.I.I.I.m.q.1.1.U.U."
};
