/* XPM */
static const char *coin_3[] = {
/* columns rows colors chars-per-pixel */
"11 11 5 1 ",
"  c #1B1B1B",
". c #F2741B",
"X c #FBC41B",
"o c #FFF21B",
"O c None",
/* pixels */
"OOOOOOOOOOO",
"OOO    OOOO",
"OO oooo OOO",
"OO ooX. OOO",
"OO oXX. OOO",
"OO oo.. OOO",
"OO oo.. OOO",
"OO oXX. OOO",
"OO oX.. OOO",
"OO .... OOO",
"OOO    OOOO"
};
