/* XPM */
static const char *coin[] = {
/* columns rows colors chars-per-pixel */
"15 15 34 1 ",
"  c #0D0D1B",
". c #1C1B1B",
"X c #22181B",
"o c #4B2E1A",
"O c #3F411A",
"+ c #45421B",
"@ c #5C571A",
"# c #625F1B",
"$ c #70621B",
"% c #87451B",
"& c #8F4A1B",
"* c #9A4D1B",
"= c #F5761B",
"- c #DC871B",
"; c #F4841B",
": c #FD8C1B",
"> c #FD921B",
", c #F69A1B",
"< c #F7A01B",
"1 c #F7A31B",
"2 c #F9B41B",
"3 c #FABB1B",
"4 c #D1C71B",
"5 c #FBC11B",
"6 c #FBC51B",
"7 c #FBC81B",
"8 c #FCCD1B",
"9 c #FFCF1B",
"0 c #FDD41B",
"q c #FDDD1B",
"w c #FAE31B",
"e c #FBE91B",
"r c #FDEF1B",
"t c None",
/* pixels */
"ttttttttttttttt",
"ttttt       ttt",
"tttt@#######Ott",
"ttt+4reeeeew$Xt",
"tt@4rw999999-%.",
"t #rw77qq065>*.",
"t #e970ee925>*.",
"t #e9qe77<;3>*.",
"t #e9qe77,;3>*.",
"t #e909<,,<5>*.",
"t #e962;;<62:*.",
"t #w9553352;=*.",
"ttO$->>>>>:=&ot",
"tttX%*******ott",
"tttt........ttt"
};
