/* XPM */
static const char *Fro_Green2[] = {
/* columns rows colors chars-per-pixel */
"20 20 128 2 ",
"   c #0E0D0E",
".  c #140E14",
"X  c #131113",
"o  c #151315",
"O  c #151C15",
"+  c #191519",
"@  c gray10",
"#  c #1A1B1A",
"$  c #1B1B1B",
"%  c #191D19",
"&  c #1A1D1A",
"*  c #1B1D1B",
"=  c #1A1F1A",
"-  c #1A211A",
";  c #1B211B",
":  c #1B221B",
">  c #1B231B",
",  c #1B241B",
"<  c #1F251F",
"1  c #1E261E",
"2  c #192A19",
"3  c #1A281A",
"4  c #1A291A",
"5  c #1B281B",
"6  c #1A2A1A",
"7  c #193119",
"8  c #1C381C",
"9  c #1D3C1D",
"0  c #293929",
"q  c #323132",
"w  c #323432",
"e  c #333433",
"r  c #1A421A",
"t  c #1B441B",
"y  c #1C421C",
"u  c #1E401E",
"i  c #1E421E",
"p  c #1D441D",
"a  c #1E441E",
"s  c #1E451E",
"d  c #1E471E",
"f  c #1F471F",
"g  c #224222",
"h  c #234723",
"j  c #254325",
"k  c #234823",
"l  c #254925",
"z  c #2E4E2E",
"x  c #205320",
"c  c #205420",
"v  c #245624",
"b  c #205C20",
"n  c #265B26",
"m  c #265E26",
"M  c #2A552A",
"N  c #2C562C",
"B  c #2B5C2B",
"V  c #324D32",
"C  c #394139",
"Z  c #305130",
"A  c #315B31",
"S  c #335D33",
"D  c #345E34",
"F  c #345F34",
"G  c #385338",
"H  c #276227",
"J  c #296429",
"K  c #2A672A",
"L  c #316431",
"P  c #336933",
"I  c #326D32",
"U  c #326E32",
"Y  c #336E33",
"T  c #336F33",
"R  c #346C34",
"E  c #387238",
"W  c #387338",
"Q  c #3A703A",
"!  c #397439",
"~  c #3A753A",
"^  c #3B763B",
"/  c #3C703C",
"(  c #3F763F",
")  c #3B783B",
"_  c #3C783C",
"`  c #3C793C",
"'  c #4F534F",
"]  c #515F51",
"[  c #595859",
"{  c #407440",
"}  c #407B40",
"|  c #417D41",
" . c #427C42",
".. c #437F43",
"X. c #6D6B6D",
"o. c #747574",
"O. c #438143",
"+. c #448044",
"@. c #448144",
"#. c #458145",
"$. c #458245",
"%. c #458345",
"&. c #468246",
"*. c #468446",
"=. c #488848",
"-. c #498949",
";. c #4A894A",
":. c #4A904A",
">. c #4F944F",
",. c #519151",
"<. c #509650",
"1. c #539553",
"2. c #549F54",
"3. c #658465",
"4. c #759375",
"5. c #62BA62",
"6. c #63BE63",
"7. c #65BF65",
"8. c #67C367",
"9. c #6DCE6D",
"0. c #6ED16E",
"q. c #898789",
"w. c #C8C6C8",
"e. c #CBCBCB",
"r. c gray80",
"t. c #D3D2D3",
"y. c #DBD9DB",
"u. c None",
/* pixels */
"u.u.u.u.# # # # u.u.u.u.# # # # u.u.u.u.",
"u.u.u.3 r s t 7 u.u.u.u.7 t s r 3 u.u.u.",
"u.u.X C 4.j 3.] o . . o ] 3.j 4.C X u.u.",
"u.u.  [ y.X.w.q.; V V ; q.w.X.y.[   u.u.",
"u.; O ' e.r.t.o.z 7.7.z o.t.r.e.' O ; u.",
"# i c l e e q G ..-.-...G q e e l c i # ",
"# s b n D D S / @.....@./ S D D n b s # ",
"# s J W @.@.*.@.@.@.@.@.@.*.@.@.W J s # ",
"# s U -.>.@.@.@...! ! ..@.@.@.>.-.U s # ",
"# s U <.5.-...@.! m m ! @...-.5.<.U s # ",
"# s U *.-.@.@.@...} } ..@.@.@.-.*.U s # ",
"u.3 h U @.@.@.@.@.@.@.@.@.@.@.@.U h 3 u.",
"u.u.3 k U U U _ @.@.@.@._ U U U k 3 u.u.",
"u.u.+ , s s i B ! W W ! B i s s , + u.u.",
"u.= = ; ; 1 1 g H J J H g 1 1 ; ; = = u.",
"# 3 i x v / { ( :.6.6.:.( { / v x i 3 # ",
"# 3 M ) _ @.@.2.8.9.9.8.2.@.@._ ) M 3 # ",
"# 8 P O.R Z L W ,.0.0.,.W L Z R O.P 8 # ",
"# 9 N A i = 8 3 0 <.<.0 3 8 = i A N 9 # ",
"u.# # # # # # # # = = # # # # # # # # u."
};
