/* XPM */
static const char *shop[] = {
/* columns rows colors chars-per-pixel */
"48 40 218 2 ",
"   c #1C1711",
".  c #1D1913",
"X  c #211C16",
"o  c #231E19",
"O  c #2B1C1B",
"+  c #1C241E",
"@  c #25231C",
"#  c #2A241E",
"$  c #2F281E",
"%  c #3A211D",
"&  c #261E21",
"*  c #1D2C25",
"=  c #1C2D28",
"-  c #1C2437",
";  c #1E3429",
":  c #262522",
">  c #2A2621",
",  c #2B2922",
"<  c #2E242D",
"1  c #2B2C2B",
"2  c #312421",
"3  c #322D24",
"4  c #332E29",
"5  c #34282B",
"6  c #27342D",
"7  c #333027",
"8  c #393326",
"9  c #35322A",
"0  c #3C352B",
"q  c #3D392E",
"w  c #2F2531",
"e  c #2C2E33",
"r  c #322634",
"t  c #3B2937",
"y  c #35293C",
"u  c #3B2A3C",
"i  c #362936",
"p  c #333335",
"a  c #3B3233",
"s  c #3E3B31",
"d  c #34363A",
"f  c #39393C",
"g  c #293637",
"h  c #511A1C",
"j  c #52251C",
"k  c #6F2C1F",
"l  c #491C23",
"z  c #661E26",
"x  c #4A2627",
"c  c #542728",
"v  c #423A2C",
"b  c #46342B",
"n  c #5B352A",
"m  c #422B3D",
"M  c #482F3B",
"N  c #413632",
"B  c #433D32",
"V  c #493E35",
"C  c #4B3F39",
"Z  c #583632",
"A  c #692622",
"S  c #662635",
"D  c #673A39",
"F  c #713327",
"G  c #474134",
"H  c #4B4435",
"J  c #4D433B",
"K  c #4F4838",
"L  c #524635",
"P  c #524836",
"I  c #51463E",
"U  c #554B3B",
"Y  c #584E3C",
"T  c #5A463D",
"R  c #5C513E",
"E  c #574029",
"W  c #63543D",
"Q  c #6B583D",
"!  c #7D5B3B",
"~  c #684A36",
"^  c #3C2C42",
"/  c #3E2D4B",
"(  c #3A3E45",
")  c #353B44",
"_  c #2B2E5F",
"`  c #1D347D",
"'  c #422C42",
"]  c #422E4B",
"[  c #4B2D4C",
"{  c #492E42",
"}  c #44314E",
"|  c #4E314F",
" . c #5A3542",
".. c #573445",
"X. c #5B2F57",
"o. c #453151",
"O. c #4B3253",
"+. c #4D355A",
"@. c #533355",
"#. c #593455",
"$. c #553359",
"%. c #5C365B",
"&. c #4E2F4F",
"*. c #693944",
"=. c #6E3A5A",
"-. c #663759",
";. c #733A5A",
":. c #7C3C5A",
">. c #733758",
",. c #5B3762",
"<. c #683765",
"1. c #703C63",
"2. c #75396A",
"3. c #743B74",
"4. c #793A76",
"5. c #3C444D",
"6. c #3F4853",
"7. c #35595B",
"8. c #356365",
"9. c #46474C",
"0. c #554941",
"q. c #5A4E42",
"w. c #5E5243",
"e. c #5F5348",
"r. c #57544E",
"t. c #474A55",
"y. c #4B525D",
"u. c #54505A",
"i. c #664842",
"p. c #625543",
"a. c #655A45",
"s. c #6B5C45",
"d. c #645649",
"f. c #6B5D4A",
"g. c #685647",
"h. c #705F4C",
"j. c #795D43",
"k. c #6D4E52",
"l. c #4E6257",
"z. c #6E624C",
"x. c #736246",
"c. c #72634C",
"v. c #7D6A4B",
"b. c #796448",
"n. c #6B6456",
"m. c #766551",
"M. c #7B6754",
"N. c #7C6C55",
"B. c #746954",
"V. c #7F7157",
"C. c #4A5461",
"Z. c #4E5867",
"A. c #525764",
"S. c #7B4164",
"D. c #794167",
"F. c #5E6673",
"G. c #59616B",
"H. c #636C7B",
"J. c #6D6962",
"K. c #84543A",
"L. c #9C6034",
"P. c #A86536",
"I. c #CA773C",
"U. c #813D59",
"Y. c #883F67",
"T. c #875B45",
"R. c #88435C",
"E. c #866648",
"W. c #966748",
"Q. c #8C734E",
"!. c #9F764B",
"~. c #97774B",
"^. c #836C54",
"/. c #836F58",
"(. c #837156",
"). c #84735A",
"_. c #8B755B",
"`. c #8D7A5D",
"'. c #887758",
"]. c #957D5E",
"[. c #9A7E5C",
"{. c #997756",
"}. c #A8774D",
"|. c #A37C56",
" X c #B16C42",
".X c #884466",
"XX c #924669",
"oX c #94486B",
"OX c #924870",
"+X c #8C7D61",
"@X c #907F61",
"#X c #99825A",
"$X c #A4855D",
"%X c #AD8A5D",
"&X c #AA8759",
"*X c #B88A58",
"=X c #B9995D",
"-X c #8F8062",
";X c #938365",
":X c #9A8261",
">X c #9B8A69",
",X c #9D917F",
"<X c #A08662",
"1X c #A68962",
"2X c #A5916F",
"3X c #B89465",
"4X c #C48C55",
"5X c #D08F56",
"6X c #EA8642",
"7X c #D2AD6A",
"8X c #E3BB73",
"9X c #E1BB69",
"0X c #677186",
"qX c #AB9D8A",
"wX c #C0B19C",
"eX c #F9CA84",
"rX c None",
"tX c black",
/* pixels */
"rXrXrXrXrXrXrXrXrXrXrXrXrX0XH.G.H.H.rXrXrXrXrXrXrXrXrXrXrXrXrXrXrXrXrXrXrXrXrXrXrXrXrXrXrXrXrXrX",
"rXrXrXrXrXrXrXrXrXrXrXrXrXC.Z.Z.Z.5.rXrXrXrXrXrXrXrXrXrXrXrXrXrXrXrXrXrXrXrXrXrXrXrXrXrXrXrXrXrX",
"rXrXrXrXrXrXrXrXrXrXrXrX5.y.t.( 5.d rXrXrXrXrXrXrXrXrXrXrXrXrXrXrXrXrXrXrXrXrXrXrXrXrXrXrXrXrXrX",
"rXrXrXrXrXrXrXrXrXrXrXrX5.6.) 5.) 1 @ rXrXrXrXrXrXrXrXrXrXrXrXrXrXrXrXrXrXrXrXrXrXrXrXrXrXrXrXrX",
"rXrXrXrXrXrXrXrXrXrXrX6.C.G.n.n.n.! Q ).2X8XrXrXrXrX>X3X*X%X4X>X>XrXrXrXrXrXrXrXrXrXrXrXrXrXrXrX",
"rXrXrX`.).rXrXrXrXrXrXy.C.r.p.w.E.}.!.R s.&X#Xc.m.f.a.!.x.p.E.s.a.w.rXrXrXrXrXrXrXrXrXz.+XB.rXrX",
"rXrXK U p.N.7Xv.s.!.Q.z.s G R Y R R j.U z.a.z.w.U w.R W f.w.U Y Y K q f.).).z.&X~.*X).f.U U rXrX",
"rXrXrXU R W x.R R R R P 8 K a.R R ).(.w.(.B.;Xw.f.@Xc.a.;X:Xz.R w.U 8 P R R p.s.W Q W R Y K rXrX",
"rXrXrXG v v B V v B B q 4 q R Y w.>Xs.U v.;X;Xc.`.f.`.a.c.N.`.U Y G > N b B V q v V v v G rXrXrX",
"rXrXrXrXX.r -.-.r -.$.r $.I a.p.N.;XN.N.N.z.).N.+Xa.N.p.).+XN.w.w.I t S.^ { 1.y ..1.r [ rXrXrXrX",
"rXrXrXrX2.] Y.D.] Y.<.[ -.K R R z.s.`.;XV.p.'.z.-X2Xf.U ;X'.w.Y K G ..oXO.-.XXo.;..X} <.rXrXrXrX",
"rXrXrXrXu w u t Z  .m D m 4 B R R w.).f.c.Y V.a.R N.Y G z.z.R R G 8 5 m r i m M *.m r r u rXrXrX",
"rXrXrXrXD.y =.D.D 2.,.D Y.&.3 Y p.p.a.w.a.p.a.p.R R p.p.U w.a.R N i ' 3.] [ 3. .S.D.y #.XXrXrXrX",
"rXrXrX*.:.] U.=.] 2.,.[ Y.$.y < , 3 v K K P K G H H L v 0 8 3 r o.+.@.2.o.X.2.o.;.S.] %.U.rXrXrX",
"rXrXrXu { D M u < u u w m r w ^ > & u > < u : < u : i r o r r < ^ i r ' < r ' r i ' w u m rXrXrX",
"rXrXrX;.XX .1.3.y .X<.u XX%.{ oXO...OX] @.4.^ -.3.y .X1.u 3.,.u XX@.{ oX} [ 4.^ X.3.^ %..XrXrXrX",
"Q.9X_.=.=./ >.-.] :.#.] :.| [ :.O.#.:.] X.<.] >.-.] R.-.] <.O.[ R.@.&.:.] X.<.} X.<./ %.U.k.-XB.",
"U v.c.d.e.I I j.E.e.J V e.w.e.e.e.e.e.V a a J e.q.Q.=Xc.e.J a 0.W.j.e.e.V I b.j.I 0.p.!.~.p.R U ",
"B L U a.f.a.p.x.s.a.p.p.s.a.a.a.w.p.f.s.p.p.a.a.p.s.Q R R p.f.s.W Q a.a.s.a.s.s.p.p.v.E.#Xa.R G ",
"rXG G v v v v v v 0 0 0 0 0 q L x._.].`.b.p.U U Y w.s.f.b.'.].].v.v v v 0 v v v 0 v v 0 v H H rX",
"rXrXrXrX@ @ @ . . . . . . X v E.4X%X<X:X]._.N.m.m.^.].`._.].<X].].s.X   . . . .   X @ @ @ rXrXrX",
"rXrXrXrX9.9 8 X X @ @ @ , h.:X$X!.{.].`._.].].].).{.|.E.^._.].$X:X<Xp.> @ @ X X . , q f A.rXrXrX",
"rXrXrXrXZ.> B @ X @ > @ 4 p.).[.W.W./.M.N.).`._./.M.M.E._._.[.*X*X1X/.q @ @ @ @ X q 7 ( 0XrXrXrX",
"rXrXrXrX4 8 G 3 X @ > > , U 0.p.^.].].).M.T.M.N.N.N./.`.:X:X<X$X&X(.p.I # # @ @ X H 8 0 rXrXrXrX",
"rXrXrXrXa K R 3 X > > > 4 e.0.J I q.h.^.M.T.^._._._._._.`._.^.m.f.q.I e.0 @ @ X X P Y V rXrXrXrX",
"rXrXrX9.A.d K 3 . @ @ @ 4 e.0.q.I J J I I 0.p.f.h.f.d.q.I I J I I J I q.7 @ @ X X G s t.A.rXrXrX",
"rXrXrXn D x L v X @ @ @ , B N U I J J J C I J J J J J J J J J J J C q , > @ @ X # H b n Z n rXrX",
"rXrXrXP.6XL.W B X > > @ @ # # X 4 3 0 q # 0 I V V J J J B J V q 3 6 4 # > @ @ . $ L K.I.I.P.rXrX",
"rXrXrX%XeX$Xx.v . # @ @ @ @ > , F.1 f d   . 3 @ o @ @ @ @ 6 X . + * 2 @ @ @ @ . # K Q.8X7X3XrXrX",
"rXrXrXV.wXB.w.v X @ > > @ @ 2 p 0Xp F.Z.. X h l l O .   . * = ; * : 2 @ > @ @ . 4 H w.qX,Xn.rXrX",
"rXrXrXrX4 8 U K @ X > @ @ @ 2 1 y.: A.9.. X z S S x X . . . + + . o # @ @ @ @ X 0 Y G 7 9 rXrXrX",
"rXrXrXrXrXB P P # @ > # > X 2 : d X p 1   . g 8.5.i + . . .     . o # @ @ @ @ X v R K 9 rXrXrXrX",
"B.:X:X#X[.R P H # X > , > # 2 , p X d 1 . . 1 8.7.*   .       . . o 2 > > @ @ X v U U 4 rXrXrXrX",
"0 I p.f.f.H H B , . @ # @ @ @ #   . X X   . e 8.7.- . . E ! n X . # 2 @ > @ @ @ K U U 1 1 ( rXrX",
"7 @ # 3 3 3 H G , j j k % X O #       . = - _ c m ` - ~ 4X5X XF A x # @ # @ @ # K Y H > : p rXrX",
"0 @ @ 7 # 3 H 0 U T.A A c 3 0 b V V V J l.t.u.~ i.t.9.Q.%X|.W.T.K.Z 0 f @ @ X # K U G @ 9 q U rX",
"0 , @ , 0 7 G B p.h.g.i.T 7 3 3 H I q.Y U q.q.Y Y Y Y I K I U K G 3 a t.1 X . @ U w.v @ 0 s U rX",
"s 4 : @ , 4 K m._.d.V q 3 > @ X 7 q s B s B B s q B B 0 q B q 0 , X @ y.f @ . # H w.q @ 9 q G rX",
"G q 3 3 3 4 U _.).p.V 0 @ , > X 0 B G H H V B V H H G B B G H B 7 X > p 9.X . , 9 B 4 @ , 9 q rX",
"G H H B H B H f.p.V N 7 @ X > X 4 s B q s B B s B G B B B V B 0 , X , > 9.@ . , 0 7 > @ @ @ rXrX"
};
